<mxfile host="app.diagrams.net" modified="2020-03-22T17:21:39.958Z" agent="Mozilla/5.0 (X11; Linux x86_64) AppleWebKit/537.36 (KHTML, like Gecko) Chrome/80.0.3987.132 Safari/537.36" etag="oqUNV70cSpkZl0yxYgEy" version="12.8.8" type="github">
  <diagram id="XgXNr6Z6_WJrXe34QMv1" name="Page-1">
    <mxGraphModel dx="6200" dy="3110" grid="0" gridSize="10" guides="1" tooltips="1" connect="1" arrows="1" fold="1" page="0" pageScale="1" pageWidth="827" pageHeight="1169" background="#FFFBE6" math="0" shadow="0">
      <root>
        <mxCell id="zQfSphmoL-g94JaTufq7-0" />
        <mxCell id="zQfSphmoL-g94JaTufq7-1" parent="zQfSphmoL-g94JaTufq7-0" />
        <mxCell id="kU-b7FJ7fmNxbk-5lAyr-2" value="Introduction&lt;br&gt;to Java" style="ellipse;whiteSpace=wrap;html=1;shadow=0;fontFamily=Helvetica;fontSize=20;fontColor=#FFFFFF;align=center;strokeWidth=3;fillColor=#F08705;strokeColor=none;gradientColor=none;" vertex="1" parent="zQfSphmoL-g94JaTufq7-1">
          <mxGeometry x="471" y="187" width="120" height="120" as="geometry" />
        </mxCell>
        <mxCell id="kU-b7FJ7fmNxbk-5lAyr-3" value="Coditions" style="ellipse;whiteSpace=wrap;html=1;shadow=0;fontFamily=Helvetica;fontSize=20;fontColor=#FFFFFF;align=center;strokeWidth=3;fillColor=#E85642;strokeColor=none;" vertex="1" parent="zQfSphmoL-g94JaTufq7-1">
          <mxGeometry x="2046" y="661" width="110" height="120" as="geometry" />
        </mxCell>
        <mxCell id="kU-b7FJ7fmNxbk-5lAyr-4" value="Array" style="ellipse;whiteSpace=wrap;html=1;shadow=0;fontFamily=Helvetica;fontSize=20;fontColor=#FFFFFF;align=center;strokeWidth=3;fillColor=#1699D3;strokeColor=none;" vertex="1" parent="zQfSphmoL-g94JaTufq7-1">
          <mxGeometry x="196" y="1253" width="120" height="120" as="geometry" />
        </mxCell>
        <mxCell id="kU-b7FJ7fmNxbk-5lAyr-8" value="Java is a &lt;br&gt;programing language" style="rounded=1;fillColor=#f5af58;strokeColor=none;strokeWidth=3;shadow=0;html=1;fontColor=#FFFFFF;" vertex="1" parent="zQfSphmoL-g94JaTufq7-1">
          <mxGeometry x="396" y="377" width="160" height="40" as="geometry" />
        </mxCell>
        <mxCell id="kU-b7FJ7fmNxbk-5lAyr-11" style="endArrow=none;strokeWidth=6;strokeColor=#f08705;html=1;" edge="1" parent="zQfSphmoL-g94JaTufq7-1" source="kU-b7FJ7fmNxbk-5lAyr-166" target="kU-b7FJ7fmNxbk-5lAyr-2">
          <mxGeometry relative="1" as="geometry" />
        </mxCell>
        <mxCell id="kU-b7FJ7fmNxbk-5lAyr-12" style="endArrow=none;strokeWidth=6;strokeColor=#E85642;html=1;" edge="1" parent="zQfSphmoL-g94JaTufq7-1" source="kU-b7FJ7fmNxbk-5lAyr-166" target="kU-b7FJ7fmNxbk-5lAyr-3">
          <mxGeometry relative="1" as="geometry" />
        </mxCell>
        <mxCell id="kU-b7FJ7fmNxbk-5lAyr-13" style="endArrow=none;strokeWidth=6;strokeColor=#1699D3;html=1;" edge="1" parent="zQfSphmoL-g94JaTufq7-1" source="kU-b7FJ7fmNxbk-5lAyr-166" target="kU-b7FJ7fmNxbk-5lAyr-4">
          <mxGeometry relative="1" as="geometry" />
        </mxCell>
        <mxCell id="kU-b7FJ7fmNxbk-5lAyr-14" style="endArrow=none;strokeWidth=6;strokeColor=#736CA8;html=1;" edge="1" parent="zQfSphmoL-g94JaTufq7-1" source="kU-b7FJ7fmNxbk-5lAyr-166" target="kU-b7FJ7fmNxbk-5lAyr-167">
          <mxGeometry relative="1" as="geometry" />
        </mxCell>
        <mxCell id="kU-b7FJ7fmNxbk-5lAyr-39" value="is used to develop web apps,&lt;br&gt;game ,desktop apps, mobile apps&lt;br&gt;and much more&amp;nbsp;" style="rounded=1;fillColor=#f5af58;strokeColor=none;strokeWidth=3;shadow=0;html=1;fontColor=#FFFFFF;align=left;" vertex="1" parent="zQfSphmoL-g94JaTufq7-1">
          <mxGeometry x="225" y="291" width="203" height="54" as="geometry" />
        </mxCell>
        <mxCell id="kU-b7FJ7fmNxbk-5lAyr-40" value="- Works on diffirence platform&lt;br&gt;- Easy to learn and simple to use&lt;br&gt;- 1 of the most popular programming&amp;nbsp;&lt;br&gt;- Secure,Fast and Powerfull&lt;br&gt;- Its an OOP language" style="rounded=1;fillColor=#f5af58;strokeColor=none;strokeWidth=3;shadow=0;html=1;fontColor=#FFFFFF;align=left;" vertex="1" parent="zQfSphmoL-g94JaTufq7-1">
          <mxGeometry x="211" y="124" width="206" height="93" as="geometry" />
        </mxCell>
        <mxCell id="kU-b7FJ7fmNxbk-5lAyr-41" value="JVM" style="rounded=1;fillColor=#f5af58;strokeColor=none;strokeWidth=3;shadow=0;html=1;fontColor=#FFFFFF;" vertex="1" parent="zQfSphmoL-g94JaTufq7-1">
          <mxGeometry x="428" y="59" width="120" height="40" as="geometry" />
        </mxCell>
        <mxCell id="kU-b7FJ7fmNxbk-5lAyr-42" value="Java evironment" style="rounded=1;fillColor=#f5af58;strokeColor=none;strokeWidth=3;shadow=0;html=1;fontColor=#FFFFFF;" vertex="1" parent="zQfSphmoL-g94JaTufq7-1">
          <mxGeometry x="596" y="107" width="120" height="40" as="geometry" />
        </mxCell>
        <mxCell id="kU-b7FJ7fmNxbk-5lAyr-43" value="Java Platform" style="rounded=1;fillColor=#ffe6cc;strokeColor=#FFB366;strokeWidth=3;shadow=0;html=1;" vertex="1" parent="zQfSphmoL-g94JaTufq7-1">
          <mxGeometry x="688" y="267" width="120" height="40" as="geometry" />
        </mxCell>
        <mxCell id="kU-b7FJ7fmNxbk-5lAyr-50" value="" style="edgeStyle=none;endArrow=none;strokeWidth=3;strokeColor=#F5AF58;html=1;" edge="1" parent="zQfSphmoL-g94JaTufq7-1" source="kU-b7FJ7fmNxbk-5lAyr-2" target="kU-b7FJ7fmNxbk-5lAyr-8">
          <mxGeometry x="-629" y="-33" width="100" height="100" as="geometry">
            <mxPoint x="-629" y="67" as="sourcePoint" />
            <mxPoint x="-529" y="-33" as="targetPoint" />
          </mxGeometry>
        </mxCell>
        <mxCell id="kU-b7FJ7fmNxbk-5lAyr-51" value="" style="edgeStyle=none;endArrow=none;strokeWidth=3;strokeColor=#F5AF58;html=1;" edge="1" parent="zQfSphmoL-g94JaTufq7-1" source="kU-b7FJ7fmNxbk-5lAyr-2" target="kU-b7FJ7fmNxbk-5lAyr-39">
          <mxGeometry x="-629" y="-33" width="100" height="100" as="geometry">
            <mxPoint x="-629" y="67" as="sourcePoint" />
            <mxPoint x="-529" y="-33" as="targetPoint" />
          </mxGeometry>
        </mxCell>
        <mxCell id="kU-b7FJ7fmNxbk-5lAyr-52" value="" style="edgeStyle=none;endArrow=none;strokeWidth=3;strokeColor=#F5AF58;html=1;" edge="1" parent="zQfSphmoL-g94JaTufq7-1" source="kU-b7FJ7fmNxbk-5lAyr-2" target="kU-b7FJ7fmNxbk-5lAyr-40">
          <mxGeometry x="-629" y="-33" width="100" height="100" as="geometry">
            <mxPoint x="-629" y="67" as="sourcePoint" />
            <mxPoint x="-529" y="-33" as="targetPoint" />
          </mxGeometry>
        </mxCell>
        <mxCell id="kU-b7FJ7fmNxbk-5lAyr-53" value="" style="edgeStyle=none;endArrow=none;strokeWidth=3;strokeColor=#F5AF58;html=1;" edge="1" parent="zQfSphmoL-g94JaTufq7-1" source="kU-b7FJ7fmNxbk-5lAyr-2" target="kU-b7FJ7fmNxbk-5lAyr-41">
          <mxGeometry x="-629" y="-33" width="100" height="100" as="geometry">
            <mxPoint x="-629" y="67" as="sourcePoint" />
            <mxPoint x="-529" y="-33" as="targetPoint" />
          </mxGeometry>
        </mxCell>
        <mxCell id="kU-b7FJ7fmNxbk-5lAyr-54" value="" style="edgeStyle=none;endArrow=none;strokeWidth=3;strokeColor=#F5AF58;html=1;" edge="1" parent="zQfSphmoL-g94JaTufq7-1" source="kU-b7FJ7fmNxbk-5lAyr-2" target="kU-b7FJ7fmNxbk-5lAyr-42">
          <mxGeometry x="-629" y="-33" width="100" height="100" as="geometry">
            <mxPoint x="-629" y="67" as="sourcePoint" />
            <mxPoint x="-529" y="-33" as="targetPoint" />
          </mxGeometry>
        </mxCell>
        <mxCell id="kU-b7FJ7fmNxbk-5lAyr-55" value="" style="edgeStyle=none;endArrow=none;strokeWidth=3;strokeColor=#F5AF58;html=1;" edge="1" parent="zQfSphmoL-g94JaTufq7-1" source="kU-b7FJ7fmNxbk-5lAyr-2" target="kU-b7FJ7fmNxbk-5lAyr-43">
          <mxGeometry x="-629" y="-33" width="100" height="100" as="geometry">
            <mxPoint x="-629" y="67" as="sourcePoint" />
            <mxPoint x="-529" y="-33" as="targetPoint" />
          </mxGeometry>
        </mxCell>
        <mxCell id="kU-b7FJ7fmNxbk-5lAyr-66" value="IF ELSE" style="rounded=1;fillColor=#f08e81;strokeColor=none;strokeWidth=3;shadow=0;html=1;fontColor=#FFFFFF;" vertex="1" parent="zQfSphmoL-g94JaTufq7-1">
          <mxGeometry x="1989" y="501" width="120" height="40" as="geometry" />
        </mxCell>
        <mxCell id="kU-b7FJ7fmNxbk-5lAyr-67" value="SWITCH CASE" style="rounded=1;fillColor=#f08e81;strokeColor=none;strokeWidth=3;shadow=0;html=1;fontColor=#FFFFFF;" vertex="1" parent="zQfSphmoL-g94JaTufq7-1">
          <mxGeometry x="2262" y="602" width="120" height="40" as="geometry" />
        </mxCell>
        <mxCell id="kU-b7FJ7fmNxbk-5lAyr-77" value="" style="edgeStyle=none;endArrow=none;strokeWidth=3;strokeColor=#F08E81;html=1;" edge="1" parent="zQfSphmoL-g94JaTufq7-1" source="kU-b7FJ7fmNxbk-5lAyr-3" target="kU-b7FJ7fmNxbk-5lAyr-66">
          <mxGeometry x="366" y="411" width="100" height="100" as="geometry">
            <mxPoint x="366" y="511" as="sourcePoint" />
            <mxPoint x="466" y="411" as="targetPoint" />
          </mxGeometry>
        </mxCell>
        <mxCell id="kU-b7FJ7fmNxbk-5lAyr-78" value="" style="edgeStyle=none;endArrow=none;strokeWidth=3;strokeColor=#F08E81;html=1;" edge="1" parent="zQfSphmoL-g94JaTufq7-1" source="kU-b7FJ7fmNxbk-5lAyr-3" target="kU-b7FJ7fmNxbk-5lAyr-67">
          <mxGeometry x="366" y="411" width="100" height="100" as="geometry">
            <mxPoint x="2155" y="703" as="sourcePoint" />
            <mxPoint x="466" y="411" as="targetPoint" />
          </mxGeometry>
        </mxCell>
        <mxCell id="kU-b7FJ7fmNxbk-5lAyr-86" value="Perch" style="rounded=1;fillColor=#64BBE2;strokeColor=none;strokeWidth=3;shadow=0;html=1;fontColor=#FFFFFF;" vertex="1" parent="zQfSphmoL-g94JaTufq7-1">
          <mxGeometry x="41" y="1213" width="120" height="40" as="geometry" />
        </mxCell>
        <mxCell id="kU-b7FJ7fmNxbk-5lAyr-87" value="Mackerel" style="rounded=1;fillColor=#64BBE2;strokeColor=none;strokeWidth=3;shadow=0;html=1;fontColor=#FFFFFF;" vertex="1" parent="zQfSphmoL-g94JaTufq7-1">
          <mxGeometry x="71" y="1143" width="120" height="40" as="geometry" />
        </mxCell>
        <mxCell id="kU-b7FJ7fmNxbk-5lAyr-88" value="Tuna" style="rounded=1;fillColor=#64BBE2;strokeColor=none;strokeWidth=3;shadow=0;html=1;fontColor=#FFFFFF;" vertex="1" parent="zQfSphmoL-g94JaTufq7-1">
          <mxGeometry x="196" y="1113" width="120" height="40" as="geometry" />
        </mxCell>
        <mxCell id="kU-b7FJ7fmNxbk-5lAyr-89" value="Shark" style="rounded=1;fillColor=#64BBE2;strokeColor=none;strokeWidth=3;shadow=0;html=1;fontColor=#FFFFFF;" vertex="1" parent="zQfSphmoL-g94JaTufq7-1">
          <mxGeometry x="316" y="1063" width="120" height="40" as="geometry" />
        </mxCell>
        <mxCell id="kU-b7FJ7fmNxbk-5lAyr-91" value="Bass" style="rounded=1;fillColor=#64BBE2;strokeColor=none;strokeWidth=3;shadow=0;html=1;fontColor=#FFFFFF;" vertex="1" parent="zQfSphmoL-g94JaTufq7-1">
          <mxGeometry x="431" y="1233" width="120" height="40" as="geometry" />
        </mxCell>
        <mxCell id="kU-b7FJ7fmNxbk-5lAyr-92" value="Eel" style="rounded=1;fillColor=#64BBE2;strokeColor=none;strokeWidth=3;shadow=0;html=1;fontColor=#FFFFFF;" vertex="1" parent="zQfSphmoL-g94JaTufq7-1">
          <mxGeometry x="381" y="1413" width="120" height="40" as="geometry" />
        </mxCell>
        <mxCell id="kU-b7FJ7fmNxbk-5lAyr-93" value="Oyster" style="rounded=1;fillColor=#64BBE2;strokeColor=none;strokeWidth=3;shadow=0;html=1;fontColor=#FFFFFF;" vertex="1" parent="zQfSphmoL-g94JaTufq7-1">
          <mxGeometry x="441" y="1318" width="120" height="40" as="geometry" />
        </mxCell>
        <mxCell id="kU-b7FJ7fmNxbk-5lAyr-94" value="Ray" style="rounded=1;fillColor=#64BBE2;strokeColor=none;strokeWidth=3;shadow=0;html=1;fontColor=#FFFFFF;" vertex="1" parent="zQfSphmoL-g94JaTufq7-1">
          <mxGeometry x="241" y="1463" width="120" height="40" as="geometry" />
        </mxCell>
        <mxCell id="kU-b7FJ7fmNxbk-5lAyr-95" value="Trout" style="rounded=1;fillColor=#64BBE2;strokeColor=none;strokeWidth=3;shadow=0;html=1;fontColor=#FFFFFF;" vertex="1" parent="zQfSphmoL-g94JaTufq7-1">
          <mxGeometry x="116" y="1403" width="120" height="40" as="geometry" />
        </mxCell>
        <mxCell id="kU-b7FJ7fmNxbk-5lAyr-96" value="Catfish" style="rounded=1;fillColor=#64BBE2;strokeColor=none;strokeWidth=3;shadow=0;html=1;fontColor=#FFFFFF;" vertex="1" parent="zQfSphmoL-g94JaTufq7-1">
          <mxGeometry x="16" y="1338" width="120" height="40" as="geometry" />
        </mxCell>
        <mxCell id="kU-b7FJ7fmNxbk-5lAyr-97" value="" style="edgeStyle=none;endArrow=none;strokeWidth=3;strokeColor=#64BBE2;html=1;" edge="1" parent="zQfSphmoL-g94JaTufq7-1" source="kU-b7FJ7fmNxbk-5lAyr-4" target="kU-b7FJ7fmNxbk-5lAyr-86">
          <mxGeometry x="-1764" y="643" width="100" height="100" as="geometry">
            <mxPoint x="-1764" y="743" as="sourcePoint" />
            <mxPoint x="-1664" y="643" as="targetPoint" />
          </mxGeometry>
        </mxCell>
        <mxCell id="kU-b7FJ7fmNxbk-5lAyr-98" value="" style="edgeStyle=none;endArrow=none;strokeWidth=3;strokeColor=#64BBE2;html=1;" edge="1" parent="zQfSphmoL-g94JaTufq7-1" source="kU-b7FJ7fmNxbk-5lAyr-4" target="kU-b7FJ7fmNxbk-5lAyr-87">
          <mxGeometry x="-1764" y="643" width="100" height="100" as="geometry">
            <mxPoint x="-1764" y="743" as="sourcePoint" />
            <mxPoint x="-1664" y="643" as="targetPoint" />
          </mxGeometry>
        </mxCell>
        <mxCell id="kU-b7FJ7fmNxbk-5lAyr-99" value="" style="edgeStyle=none;endArrow=none;strokeWidth=3;strokeColor=#64BBE2;html=1;" edge="1" parent="zQfSphmoL-g94JaTufq7-1" source="kU-b7FJ7fmNxbk-5lAyr-4" target="kU-b7FJ7fmNxbk-5lAyr-88">
          <mxGeometry x="-1764" y="643" width="100" height="100" as="geometry">
            <mxPoint x="-1764" y="743" as="sourcePoint" />
            <mxPoint x="-1664" y="643" as="targetPoint" />
          </mxGeometry>
        </mxCell>
        <mxCell id="kU-b7FJ7fmNxbk-5lAyr-100" value="" style="edgeStyle=none;endArrow=none;strokeWidth=3;strokeColor=#64BBE2;html=1;" edge="1" parent="zQfSphmoL-g94JaTufq7-1" source="kU-b7FJ7fmNxbk-5lAyr-4" target="kU-b7FJ7fmNxbk-5lAyr-89">
          <mxGeometry x="-1764" y="643" width="100" height="100" as="geometry">
            <mxPoint x="-1764" y="743" as="sourcePoint" />
            <mxPoint x="-1664" y="643" as="targetPoint" />
          </mxGeometry>
        </mxCell>
        <mxCell id="kU-b7FJ7fmNxbk-5lAyr-102" value="" style="edgeStyle=none;endArrow=none;strokeWidth=3;strokeColor=#64BBE2;html=1;" edge="1" parent="zQfSphmoL-g94JaTufq7-1" source="kU-b7FJ7fmNxbk-5lAyr-4" target="kU-b7FJ7fmNxbk-5lAyr-91">
          <mxGeometry x="-1764" y="643" width="100" height="100" as="geometry">
            <mxPoint x="-1764" y="743" as="sourcePoint" />
            <mxPoint x="-1664" y="643" as="targetPoint" />
          </mxGeometry>
        </mxCell>
        <mxCell id="kU-b7FJ7fmNxbk-5lAyr-103" value="" style="edgeStyle=none;endArrow=none;strokeWidth=3;strokeColor=#64BBE2;html=1;" edge="1" parent="zQfSphmoL-g94JaTufq7-1" source="kU-b7FJ7fmNxbk-5lAyr-4" target="kU-b7FJ7fmNxbk-5lAyr-93">
          <mxGeometry x="-1764" y="643" width="100" height="100" as="geometry">
            <mxPoint x="-1764" y="743" as="sourcePoint" />
            <mxPoint x="-1664" y="643" as="targetPoint" />
          </mxGeometry>
        </mxCell>
        <mxCell id="kU-b7FJ7fmNxbk-5lAyr-104" value="" style="edgeStyle=none;endArrow=none;strokeWidth=3;strokeColor=#64BBE2;html=1;" edge="1" parent="zQfSphmoL-g94JaTufq7-1" source="kU-b7FJ7fmNxbk-5lAyr-4" target="kU-b7FJ7fmNxbk-5lAyr-92">
          <mxGeometry x="-1764" y="643" width="100" height="100" as="geometry">
            <mxPoint x="-1764" y="743" as="sourcePoint" />
            <mxPoint x="-1664" y="643" as="targetPoint" />
          </mxGeometry>
        </mxCell>
        <mxCell id="kU-b7FJ7fmNxbk-5lAyr-105" value="" style="edgeStyle=none;endArrow=none;strokeWidth=3;strokeColor=#64BBE2;html=1;" edge="1" parent="zQfSphmoL-g94JaTufq7-1" source="kU-b7FJ7fmNxbk-5lAyr-4" target="kU-b7FJ7fmNxbk-5lAyr-94">
          <mxGeometry x="-1764" y="643" width="100" height="100" as="geometry">
            <mxPoint x="-1764" y="743" as="sourcePoint" />
            <mxPoint x="-1664" y="643" as="targetPoint" />
          </mxGeometry>
        </mxCell>
        <mxCell id="kU-b7FJ7fmNxbk-5lAyr-106" value="" style="edgeStyle=none;endArrow=none;strokeWidth=3;strokeColor=#64BBE2;html=1;" edge="1" parent="zQfSphmoL-g94JaTufq7-1" source="kU-b7FJ7fmNxbk-5lAyr-4" target="kU-b7FJ7fmNxbk-5lAyr-95">
          <mxGeometry x="-1764" y="643" width="100" height="100" as="geometry">
            <mxPoint x="-1764" y="743" as="sourcePoint" />
            <mxPoint x="-1664" y="643" as="targetPoint" />
          </mxGeometry>
        </mxCell>
        <mxCell id="kU-b7FJ7fmNxbk-5lAyr-107" value="" style="edgeStyle=none;endArrow=none;strokeWidth=3;strokeColor=#64BBE2;html=1;" edge="1" parent="zQfSphmoL-g94JaTufq7-1" source="kU-b7FJ7fmNxbk-5lAyr-4" target="kU-b7FJ7fmNxbk-5lAyr-96">
          <mxGeometry x="-1764" y="643" width="100" height="100" as="geometry">
            <mxPoint x="-1764" y="743" as="sourcePoint" />
            <mxPoint x="-1664" y="643" as="targetPoint" />
          </mxGeometry>
        </mxCell>
        <mxCell id="kU-b7FJ7fmNxbk-5lAyr-165" style="edgeStyle=orthogonalEdgeStyle;rounded=0;html=1;exitX=0.75;exitY=0;entryX=0.75;entryY=0;startArrow=none;startFill=0;endArrow=block;endFill=1;jettySize=auto;orthogonalLoop=1;strokeColor=#12aab5;strokeWidth=6;fontSize=20;fontColor=#2F5B7C;" edge="1" parent="zQfSphmoL-g94JaTufq7-1">
          <mxGeometry relative="1" as="geometry">
            <mxPoint x="1946" y="676" as="sourcePoint" />
            <mxPoint x="1946" y="676" as="targetPoint" />
          </mxGeometry>
        </mxCell>
        <mxCell id="kU-b7FJ7fmNxbk-5lAyr-166" value="Module2&lt;br&gt;Week1" style="ellipse;whiteSpace=wrap;html=1;shadow=0;fontFamily=Helvetica;fontSize=30;align=center;strokeColor=#7700CC;strokeWidth=6;fillColor=#aa00ff;fontStyle=1;fontColor=#ffffff;" vertex="1" parent="zQfSphmoL-g94JaTufq7-1">
          <mxGeometry x="944" y="695" width="270" height="270" as="geometry" />
        </mxCell>
        <mxCell id="kU-b7FJ7fmNxbk-5lAyr-167" value="Methods" style="ellipse;whiteSpace=wrap;html=1;shadow=0;fontFamily=Helvetica;fontSize=20;fontColor=#FFFFFF;align=center;strokeWidth=3;fillColor=#736ca8;strokeColor=none;" vertex="1" parent="zQfSphmoL-g94JaTufq7-1">
          <mxGeometry x="-195" y="769" width="120" height="120" as="geometry" />
        </mxCell>
        <mxCell id="kU-b7FJ7fmNxbk-5lAyr-168" value="Organisation" style="rounded=1;fillColor=#a29dc5;strokeColor=none;strokeWidth=3;shadow=0;html=1;fontColor=#FFFFFF;" vertex="1" parent="zQfSphmoL-g94JaTufq7-1">
          <mxGeometry x="-305" y="669" width="120" height="40" as="geometry" />
        </mxCell>
        <mxCell id="kU-b7FJ7fmNxbk-5lAyr-169" value="Oak" style="rounded=1;fillColor=#a29dc5;strokeColor=none;strokeWidth=3;shadow=0;html=1;fontColor=#FFFFFF;" vertex="1" parent="zQfSphmoL-g94JaTufq7-1">
          <mxGeometry x="-197.5" y="609" width="120" height="40" as="geometry" />
        </mxCell>
        <mxCell id="kU-b7FJ7fmNxbk-5lAyr-170" value="Birch" style="rounded=1;fillColor=#a29dc5;strokeColor=none;strokeWidth=3;shadow=0;html=1;fontColor=#FFFFFF;" vertex="1" parent="zQfSphmoL-g94JaTufq7-1">
          <mxGeometry x="-57.5" y="619" width="120" height="40" as="geometry" />
        </mxCell>
        <mxCell id="kU-b7FJ7fmNxbk-5lAyr-171" value="Silverfern" style="rounded=1;fillColor=#a29dc5;strokeColor=none;strokeWidth=3;shadow=0;html=1;fontColor=#FFFFFF;" vertex="1" parent="zQfSphmoL-g94JaTufq7-1">
          <mxGeometry x="7.5" y="689" width="120" height="40" as="geometry" />
        </mxCell>
        <mxCell id="kU-b7FJ7fmNxbk-5lAyr-172" value="Personal &#xa;Development" style="rounded=1;fillColor=#a29dc5;strokeColor=none;strokeWidth=3;shadow=0;html=1;fontColor=#FFFFFF;" vertex="1" parent="zQfSphmoL-g94JaTufq7-1">
          <mxGeometry x="32.5" y="769" width="120" height="40" as="geometry" />
        </mxCell>
        <mxCell id="kU-b7FJ7fmNxbk-5lAyr-173" value="Pine" style="rounded=1;fillColor=#a29dc5;strokeColor=none;strokeWidth=3;shadow=0;html=1;fontColor=#FFFFFF;" vertex="1" parent="zQfSphmoL-g94JaTufq7-1">
          <mxGeometry x="-440" y="689" width="120" height="40" as="geometry" />
        </mxCell>
        <mxCell id="kU-b7FJ7fmNxbk-5lAyr-174" value="Lime" style="rounded=1;fillColor=#a29dc5;strokeColor=none;strokeWidth=3;shadow=0;html=1;fontColor=#FFFFFF;" vertex="1" parent="zQfSphmoL-g94JaTufq7-1">
          <mxGeometry x="-35" y="879" width="120" height="40" as="geometry" />
        </mxCell>
        <mxCell id="kU-b7FJ7fmNxbk-5lAyr-175" value="Chestnut" style="rounded=1;fillColor=#a29dc5;strokeColor=none;strokeWidth=3;shadow=0;html=1;fontColor=#FFFFFF;" vertex="1" parent="zQfSphmoL-g94JaTufq7-1">
          <mxGeometry x="-85" y="939" width="120" height="40" as="geometry" />
        </mxCell>
        <mxCell id="kU-b7FJ7fmNxbk-5lAyr-176" value="Beech" style="rounded=1;fillColor=#a29dc5;strokeColor=none;strokeWidth=3;shadow=0;html=1;fontColor=#FFFFFF;" vertex="1" parent="zQfSphmoL-g94JaTufq7-1">
          <mxGeometry x="-225" y="939" width="120" height="40" as="geometry" />
        </mxCell>
        <mxCell id="kU-b7FJ7fmNxbk-5lAyr-177" value="Poplar" style="rounded=1;fillColor=#a29dc5;strokeColor=none;strokeWidth=3;shadow=0;html=1;fontColor=#FFFFFF;" vertex="1" parent="zQfSphmoL-g94JaTufq7-1">
          <mxGeometry x="-365" y="904" width="120" height="40" as="geometry" />
        </mxCell>
        <mxCell id="kU-b7FJ7fmNxbk-5lAyr-178" value="Willow" style="rounded=1;fillColor=#a29dc5;strokeColor=none;strokeWidth=3;shadow=0;html=1;fontColor=#FFFFFF;" vertex="1" parent="zQfSphmoL-g94JaTufq7-1">
          <mxGeometry x="-470" y="849" width="120" height="40" as="geometry" />
        </mxCell>
        <mxCell id="kU-b7FJ7fmNxbk-5lAyr-179" value="" style="edgeStyle=none;endArrow=none;strokeWidth=3;strokeColor=#A29DC5;html=1;" edge="1" parent="zQfSphmoL-g94JaTufq7-1" source="kU-b7FJ7fmNxbk-5lAyr-167" target="kU-b7FJ7fmNxbk-5lAyr-168">
          <mxGeometry x="-2005" y="-256" width="100" height="100" as="geometry">
            <mxPoint x="-2005" y="-156" as="sourcePoint" />
            <mxPoint x="-1905" y="-256" as="targetPoint" />
          </mxGeometry>
        </mxCell>
        <mxCell id="kU-b7FJ7fmNxbk-5lAyr-180" value="Acacia" style="rounded=1;fillColor=#a29dc5;strokeColor=none;strokeWidth=3;shadow=0;html=1;fontColor=#FFFFFF;" vertex="1" parent="zQfSphmoL-g94JaTufq7-1">
          <mxGeometry x="-430" y="779" width="120" height="40" as="geometry" />
        </mxCell>
        <mxCell id="kU-b7FJ7fmNxbk-5lAyr-181" value="" style="edgeStyle=none;endArrow=none;strokeWidth=3;strokeColor=#A29DC5;html=1;" edge="1" parent="zQfSphmoL-g94JaTufq7-1" source="kU-b7FJ7fmNxbk-5lAyr-167" target="kU-b7FJ7fmNxbk-5lAyr-169">
          <mxGeometry x="-2005" y="-256" width="100" height="100" as="geometry">
            <mxPoint x="-2005" y="-156" as="sourcePoint" />
            <mxPoint x="-1905" y="-256" as="targetPoint" />
          </mxGeometry>
        </mxCell>
        <mxCell id="kU-b7FJ7fmNxbk-5lAyr-182" value="" style="edgeStyle=none;endArrow=none;strokeWidth=3;strokeColor=#A29DC5;html=1;" edge="1" parent="zQfSphmoL-g94JaTufq7-1" source="kU-b7FJ7fmNxbk-5lAyr-167" target="kU-b7FJ7fmNxbk-5lAyr-170">
          <mxGeometry x="-2005" y="-256" width="100" height="100" as="geometry">
            <mxPoint x="-2005" y="-156" as="sourcePoint" />
            <mxPoint x="-1905" y="-256" as="targetPoint" />
          </mxGeometry>
        </mxCell>
        <mxCell id="kU-b7FJ7fmNxbk-5lAyr-183" value="" style="edgeStyle=none;endArrow=none;strokeWidth=3;strokeColor=#A29DC5;html=1;" edge="1" parent="zQfSphmoL-g94JaTufq7-1" source="kU-b7FJ7fmNxbk-5lAyr-167" target="kU-b7FJ7fmNxbk-5lAyr-171">
          <mxGeometry x="-2005" y="-256" width="100" height="100" as="geometry">
            <mxPoint x="-2005" y="-156" as="sourcePoint" />
            <mxPoint x="-1905" y="-256" as="targetPoint" />
          </mxGeometry>
        </mxCell>
        <mxCell id="kU-b7FJ7fmNxbk-5lAyr-184" value="" style="edgeStyle=none;endArrow=none;strokeWidth=3;strokeColor=#A29DC5;html=1;" edge="1" parent="zQfSphmoL-g94JaTufq7-1" source="kU-b7FJ7fmNxbk-5lAyr-167" target="kU-b7FJ7fmNxbk-5lAyr-172">
          <mxGeometry x="-2005" y="-256" width="100" height="100" as="geometry">
            <mxPoint x="-2005" y="-156" as="sourcePoint" />
            <mxPoint x="-1905" y="-256" as="targetPoint" />
          </mxGeometry>
        </mxCell>
        <mxCell id="kU-b7FJ7fmNxbk-5lAyr-185" value="" style="edgeStyle=none;endArrow=none;strokeWidth=3;strokeColor=#A29DC5;html=1;" edge="1" parent="zQfSphmoL-g94JaTufq7-1" source="kU-b7FJ7fmNxbk-5lAyr-167" target="kU-b7FJ7fmNxbk-5lAyr-173">
          <mxGeometry x="-2005" y="-256" width="100" height="100" as="geometry">
            <mxPoint x="-2005" y="-156" as="sourcePoint" />
            <mxPoint x="-1905" y="-256" as="targetPoint" />
          </mxGeometry>
        </mxCell>
        <mxCell id="kU-b7FJ7fmNxbk-5lAyr-186" value="" style="edgeStyle=none;endArrow=none;strokeWidth=3;strokeColor=#A29DC5;html=1;" edge="1" parent="zQfSphmoL-g94JaTufq7-1" source="kU-b7FJ7fmNxbk-5lAyr-167" target="kU-b7FJ7fmNxbk-5lAyr-174">
          <mxGeometry x="-2005" y="-256" width="100" height="100" as="geometry">
            <mxPoint x="-2005" y="-156" as="sourcePoint" />
            <mxPoint x="-1905" y="-256" as="targetPoint" />
          </mxGeometry>
        </mxCell>
        <mxCell id="kU-b7FJ7fmNxbk-5lAyr-187" value="" style="edgeStyle=none;endArrow=none;strokeWidth=3;strokeColor=#A29DC5;html=1;" edge="1" parent="zQfSphmoL-g94JaTufq7-1" source="kU-b7FJ7fmNxbk-5lAyr-167" target="kU-b7FJ7fmNxbk-5lAyr-175">
          <mxGeometry x="-2005" y="-256" width="100" height="100" as="geometry">
            <mxPoint x="-2005" y="-156" as="sourcePoint" />
            <mxPoint x="-1905" y="-256" as="targetPoint" />
          </mxGeometry>
        </mxCell>
        <mxCell id="kU-b7FJ7fmNxbk-5lAyr-188" value="" style="edgeStyle=none;endArrow=none;strokeWidth=3;strokeColor=#A29DC5;html=1;" edge="1" parent="zQfSphmoL-g94JaTufq7-1" source="kU-b7FJ7fmNxbk-5lAyr-167" target="kU-b7FJ7fmNxbk-5lAyr-176">
          <mxGeometry x="-2005" y="-256" width="100" height="100" as="geometry">
            <mxPoint x="-2005" y="-156" as="sourcePoint" />
            <mxPoint x="-1905" y="-256" as="targetPoint" />
          </mxGeometry>
        </mxCell>
        <mxCell id="kU-b7FJ7fmNxbk-5lAyr-189" value="" style="edgeStyle=none;endArrow=none;strokeWidth=3;strokeColor=#A29DC5;html=1;" edge="1" parent="zQfSphmoL-g94JaTufq7-1" source="kU-b7FJ7fmNxbk-5lAyr-167" target="kU-b7FJ7fmNxbk-5lAyr-177">
          <mxGeometry x="-2005" y="-256" width="100" height="100" as="geometry">
            <mxPoint x="-2005" y="-156" as="sourcePoint" />
            <mxPoint x="-1905" y="-256" as="targetPoint" />
          </mxGeometry>
        </mxCell>
        <mxCell id="kU-b7FJ7fmNxbk-5lAyr-190" value="" style="edgeStyle=none;endArrow=none;strokeWidth=3;strokeColor=#A29DC5;html=1;" edge="1" parent="zQfSphmoL-g94JaTufq7-1" source="kU-b7FJ7fmNxbk-5lAyr-167" target="kU-b7FJ7fmNxbk-5lAyr-178">
          <mxGeometry x="-2005" y="-256" width="100" height="100" as="geometry">
            <mxPoint x="-2005" y="-156" as="sourcePoint" />
            <mxPoint x="-1905" y="-256" as="targetPoint" />
          </mxGeometry>
        </mxCell>
        <mxCell id="kU-b7FJ7fmNxbk-5lAyr-191" value="" style="edgeStyle=none;endArrow=none;strokeWidth=3;strokeColor=#A29DC5;html=1;" edge="1" parent="zQfSphmoL-g94JaTufq7-1" source="kU-b7FJ7fmNxbk-5lAyr-167" target="kU-b7FJ7fmNxbk-5lAyr-180">
          <mxGeometry x="-2005" y="-256" width="100" height="100" as="geometry">
            <mxPoint x="-2005" y="-156" as="sourcePoint" />
            <mxPoint x="-1905" y="-256" as="targetPoint" />
          </mxGeometry>
        </mxCell>
        <mxCell id="kU-b7FJ7fmNxbk-5lAyr-193" style="edgeStyle=none;rounded=0;html=1;exitX=0.5;exitY=1;endArrow=none;endFill=0;jettySize=auto;orthogonalLoop=1;strokeColor=#736CA8;strokeWidth=2;fillColor=#64bbe2;fontSize=20;fontColor=#23445D;" edge="1" parent="zQfSphmoL-g94JaTufq7-1" source="kU-b7FJ7fmNxbk-5lAyr-180" target="kU-b7FJ7fmNxbk-5lAyr-180">
          <mxGeometry relative="1" as="geometry" />
        </mxCell>
        <mxCell id="kU-b7FJ7fmNxbk-5lAyr-774" value="Variables,&lt;br&gt;Data Types &amp;amp;&lt;br&gt;Operators" style="ellipse;whiteSpace=wrap;html=1;shadow=0;fontFamily=Helvetica;fontSize=20;fontColor=#FFFFFF;align=center;strokeWidth=3;fillColor=#1699D3;strokeColor=none;" vertex="1" parent="zQfSphmoL-g94JaTufq7-1">
          <mxGeometry x="1536.57" y="-95.32999999999998" width="157.43" height="120" as="geometry" />
        </mxCell>
        <mxCell id="kU-b7FJ7fmNxbk-5lAyr-775" style="endArrow=none;strokeWidth=6;strokeColor=#1699D3;html=1;exitX=0.701;exitY=0.068;exitDx=0;exitDy=0;exitPerimeter=0;" edge="1" parent="zQfSphmoL-g94JaTufq7-1" target="kU-b7FJ7fmNxbk-5lAyr-774" source="kU-b7FJ7fmNxbk-5lAyr-166">
          <mxGeometry relative="1" as="geometry">
            <mxPoint x="1009.9970814356986" y="-934.001812761217" as="sourcePoint" />
          </mxGeometry>
        </mxCell>
        <mxCell id="kU-b7FJ7fmNxbk-5lAyr-776" value="Data Types" style="rounded=1;fillColor=#A9C4EB;strokeColor=none;strokeWidth=3;shadow=0;html=1;" vertex="1" parent="zQfSphmoL-g94JaTufq7-1">
          <mxGeometry x="1005" y="-46.999999999999886" width="120" height="40" as="geometry" />
        </mxCell>
        <mxCell id="kU-b7FJ7fmNxbk-5lAyr-777" value="Arthimetic" style="rounded=1;fillColor=#64BBE2;strokeColor=none;strokeWidth=3;shadow=0;html=1;fontColor=#000000;" vertex="1" parent="zQfSphmoL-g94JaTufq7-1">
          <mxGeometry x="1918.5" y="-415.99999999999994" width="120" height="40" as="geometry" />
        </mxCell>
        <mxCell id="kU-b7FJ7fmNxbk-5lAyr-786" value="Variables" style="rounded=1;fillColor=#64BBE2;strokeColor=none;strokeWidth=3;shadow=0;html=1;fontColor=#FFFFFF;" vertex="1" parent="zQfSphmoL-g94JaTufq7-1">
          <mxGeometry x="1177" y="-139.00000000000006" width="96" height="40" as="geometry" />
        </mxCell>
        <mxCell id="kU-b7FJ7fmNxbk-5lAyr-788" value="" style="edgeStyle=none;endArrow=none;strokeWidth=3;strokeColor=#007FFF;html=1;exitX=1;exitY=0.5;exitDx=0;exitDy=0;entryX=0;entryY=0.5;entryDx=0;entryDy=0;" edge="1" parent="zQfSphmoL-g94JaTufq7-1" source="kU-b7FJ7fmNxbk-5lAyr-774" target="kU-b7FJ7fmNxbk-5lAyr-876">
          <mxGeometry x="-367.3500000000001" y="-859.3299999999999" width="100" height="100" as="geometry">
            <mxPoint x="1748.9976502678742" y="-199.24569676318663" as="sourcePoint" />
            <mxPoint x="-267.35" y="-859.3299999999999" as="targetPoint" />
          </mxGeometry>
        </mxCell>
        <mxCell id="kU-b7FJ7fmNxbk-5lAyr-797" value="" style="edgeStyle=none;endArrow=none;strokeWidth=3;strokeColor=#3399FF;html=1;entryX=1;entryY=0.5;entryDx=0;entryDy=0;" edge="1" parent="zQfSphmoL-g94JaTufq7-1" source="kU-b7FJ7fmNxbk-5lAyr-774" target="kU-b7FJ7fmNxbk-5lAyr-786">
          <mxGeometry x="-423.43000000000006" y="-705.3299999999999" width="100" height="100" as="geometry">
            <mxPoint x="-423.43000000000006" y="-605.3299999999999" as="sourcePoint" />
            <mxPoint x="-323.43" y="-705.3299999999999" as="targetPoint" />
          </mxGeometry>
        </mxCell>
        <mxCell id="kU-b7FJ7fmNxbk-5lAyr-798" value="Loops" style="ellipse;whiteSpace=wrap;html=1;shadow=0;fontFamily=Helvetica;fontSize=20;fontColor=#FFFFFF;align=center;strokeWidth=3;fillColor=#736ca8;strokeColor=none;" vertex="1" parent="zQfSphmoL-g94JaTufq7-1">
          <mxGeometry x="1948" y="1320" width="120" height="120" as="geometry" />
        </mxCell>
        <mxCell id="kU-b7FJ7fmNxbk-5lAyr-799" value="Organisation" style="rounded=1;fillColor=#a29dc5;strokeColor=none;strokeWidth=3;shadow=0;html=1;fontColor=#FFFFFF;" vertex="1" parent="zQfSphmoL-g94JaTufq7-1">
          <mxGeometry x="1855.29" y="1190" width="120" height="40" as="geometry" />
        </mxCell>
        <mxCell id="kU-b7FJ7fmNxbk-5lAyr-800" value="FOR" style="rounded=1;fillColor=#a29dc5;strokeColor=none;strokeWidth=3;shadow=0;html=1;fontColor=#FFFFFF;" vertex="1" parent="zQfSphmoL-g94JaTufq7-1">
          <mxGeometry x="2168" y="1216" width="120" height="40" as="geometry" />
        </mxCell>
        <mxCell id="kU-b7FJ7fmNxbk-5lAyr-801" value="WHILE" style="rounded=1;fillColor=#a29dc5;strokeColor=none;strokeWidth=3;shadow=0;html=1;fontColor=#FFFFFF;" vertex="1" parent="zQfSphmoL-g94JaTufq7-1">
          <mxGeometry x="2088.5" y="1510" width="120" height="40" as="geometry" />
        </mxCell>
        <mxCell id="kU-b7FJ7fmNxbk-5lAyr-802" value="DO WHILE" style="rounded=1;fillColor=#a29dc5;strokeColor=none;strokeWidth=3;shadow=0;html=1;fontColor=#FFFFFF;" vertex="1" parent="zQfSphmoL-g94JaTufq7-1">
          <mxGeometry x="1763" y="1459" width="120" height="40" as="geometry" />
        </mxCell>
        <mxCell id="kU-b7FJ7fmNxbk-5lAyr-810" value="" style="edgeStyle=none;endArrow=none;strokeWidth=3;strokeColor=#A29DC5;html=1;" edge="1" parent="zQfSphmoL-g94JaTufq7-1" source="kU-b7FJ7fmNxbk-5lAyr-798" target="kU-b7FJ7fmNxbk-5lAyr-799">
          <mxGeometry x="138" y="295" width="100" height="100" as="geometry">
            <mxPoint x="138" y="395" as="sourcePoint" />
            <mxPoint x="238" y="295" as="targetPoint" />
          </mxGeometry>
        </mxCell>
        <mxCell id="kU-b7FJ7fmNxbk-5lAyr-812" value="" style="edgeStyle=none;endArrow=none;strokeWidth=3;strokeColor=#A29DC5;html=1;" edge="1" parent="zQfSphmoL-g94JaTufq7-1" source="kU-b7FJ7fmNxbk-5lAyr-798" target="kU-b7FJ7fmNxbk-5lAyr-800">
          <mxGeometry x="138" y="295" width="100" height="100" as="geometry">
            <mxPoint x="138" y="395" as="sourcePoint" />
            <mxPoint x="238" y="295" as="targetPoint" />
          </mxGeometry>
        </mxCell>
        <mxCell id="kU-b7FJ7fmNxbk-5lAyr-813" value="" style="edgeStyle=none;endArrow=none;strokeWidth=3;strokeColor=#A29DC5;html=1;" edge="1" parent="zQfSphmoL-g94JaTufq7-1" source="kU-b7FJ7fmNxbk-5lAyr-798" target="kU-b7FJ7fmNxbk-5lAyr-801">
          <mxGeometry x="138" y="295" width="100" height="100" as="geometry">
            <mxPoint x="138" y="395" as="sourcePoint" />
            <mxPoint x="238" y="295" as="targetPoint" />
          </mxGeometry>
        </mxCell>
        <mxCell id="kU-b7FJ7fmNxbk-5lAyr-814" value="" style="edgeStyle=none;endArrow=none;strokeWidth=3;strokeColor=#A29DC5;html=1;" edge="1" parent="zQfSphmoL-g94JaTufq7-1" source="kU-b7FJ7fmNxbk-5lAyr-798" target="kU-b7FJ7fmNxbk-5lAyr-802">
          <mxGeometry x="138" y="295" width="100" height="100" as="geometry">
            <mxPoint x="138" y="395" as="sourcePoint" />
            <mxPoint x="238" y="295" as="targetPoint" />
          </mxGeometry>
        </mxCell>
        <mxCell id="kU-b7FJ7fmNxbk-5lAyr-824" style="endArrow=none;strokeWidth=6;strokeColor=#736CA8;html=1;exitX=0.979;exitY=0.685;exitDx=0;exitDy=0;exitPerimeter=0;" edge="1" parent="zQfSphmoL-g94JaTufq7-1" source="kU-b7FJ7fmNxbk-5lAyr-166" target="kU-b7FJ7fmNxbk-5lAyr-798">
          <mxGeometry relative="1" as="geometry">
            <mxPoint x="1730.6771475893788" y="932.0034961278687" as="sourcePoint" />
            <mxPoint x="1112.45942948933" y="1246.5464913978071" as="targetPoint" />
          </mxGeometry>
        </mxCell>
        <mxCell id="kU-b7FJ7fmNxbk-5lAyr-825" value="Stadard Edition (SE)" style="rounded=1;fillColor=#ffe6cc;strokeColor=#FFB366;strokeWidth=3;shadow=0;html=1;labelBackgroundColor=none;labelBorderColor=none;comic=0;" vertex="1" parent="zQfSphmoL-g94JaTufq7-1">
          <mxGeometry x="753" y="172" width="120" height="40" as="geometry" />
        </mxCell>
        <mxCell id="kU-b7FJ7fmNxbk-5lAyr-826" value="Enterprise Edition (EE)" style="rounded=1;fillColor=#ffe6cc;strokeColor=#FFB366;strokeWidth=3;shadow=0;html=1;labelBackgroundColor=none;labelBorderColor=none;" vertex="1" parent="zQfSphmoL-g94JaTufq7-1">
          <mxGeometry x="871" y="232" width="126" height="40" as="geometry" />
        </mxCell>
        <mxCell id="kU-b7FJ7fmNxbk-5lAyr-827" value="MIcro Edition (ME)" style="rounded=1;fillColor=#ffe6cc;strokeColor=#FFB366;strokeWidth=3;shadow=0;html=1;labelBackgroundColor=none;labelBorderColor=none;" vertex="1" parent="zQfSphmoL-g94JaTufq7-1">
          <mxGeometry x="862" y="318" width="120" height="40" as="geometry" />
        </mxCell>
        <mxCell id="kU-b7FJ7fmNxbk-5lAyr-828" value="" style="edgeStyle=none;endArrow=none;strokeWidth=3;strokeColor=#FFB366;html=1;entryX=0.5;entryY=1;entryDx=0;entryDy=0;exitX=0.5;exitY=0;exitDx=0;exitDy=0;labelBackgroundColor=none;labelBorderColor=none;fontColor=#FFFFFF;shadow=0;comic=0;fillColor=#ffe6cc;" edge="1" parent="zQfSphmoL-g94JaTufq7-1" source="kU-b7FJ7fmNxbk-5lAyr-43" target="kU-b7FJ7fmNxbk-5lAyr-825">
          <mxGeometry x="-481" y="-59.68000000000001" width="100" height="100" as="geometry">
            <mxPoint x="738.0422184681731" y="230.99784802083974" as="sourcePoint" />
            <mxPoint x="836.0000000000002" y="249.26009216589847" as="targetPoint" />
          </mxGeometry>
        </mxCell>
        <mxCell id="kU-b7FJ7fmNxbk-5lAyr-829" value="" style="edgeStyle=none;endArrow=none;strokeWidth=3;strokeColor=#FFB366;html=1;entryX=0;entryY=0.5;entryDx=0;entryDy=0;exitX=1;exitY=0.5;exitDx=0;exitDy=0;labelBackgroundColor=none;labelBorderColor=none;fontColor=#FFFFFF;shadow=0;comic=0;fillColor=#ffe6cc;" edge="1" parent="zQfSphmoL-g94JaTufq7-1" source="kU-b7FJ7fmNxbk-5lAyr-43" target="kU-b7FJ7fmNxbk-5lAyr-826">
          <mxGeometry x="-471" y="-49.68000000000001" width="100" height="100" as="geometry">
            <mxPoint x="818" y="277" as="sourcePoint" />
            <mxPoint x="846" y="242" as="targetPoint" />
          </mxGeometry>
        </mxCell>
        <mxCell id="kU-b7FJ7fmNxbk-5lAyr-830" value="" style="edgeStyle=none;endArrow=none;strokeWidth=3;strokeColor=#FFB366;html=1;entryX=0;entryY=0.5;entryDx=0;entryDy=0;exitX=1;exitY=0.75;exitDx=0;exitDy=0;labelBackgroundColor=none;labelBorderColor=none;fontColor=#FFFFFF;shadow=0;comic=0;fillColor=#ffe6cc;" edge="1" parent="zQfSphmoL-g94JaTufq7-1" source="kU-b7FJ7fmNxbk-5lAyr-43" target="kU-b7FJ7fmNxbk-5lAyr-827">
          <mxGeometry x="-461" y="-39.68000000000001" width="100" height="100" as="geometry">
            <mxPoint x="818" y="297" as="sourcePoint" />
            <mxPoint x="878" y="305" as="targetPoint" />
          </mxGeometry>
        </mxCell>
        <mxCell id="kU-b7FJ7fmNxbk-5lAyr-831" value="FX" style="rounded=1;fillColor=#ffe6cc;strokeColor=#FFB366;strokeWidth=3;shadow=0;html=1;labelBackgroundColor=none;labelBorderColor=none;comic=0;" vertex="1" parent="zQfSphmoL-g94JaTufq7-1">
          <mxGeometry x="722" y="371" width="120" height="40" as="geometry" />
        </mxCell>
        <mxCell id="kU-b7FJ7fmNxbk-5lAyr-832" value="" style="edgeStyle=none;endArrow=none;strokeWidth=3;strokeColor=#FFB366;html=1;entryX=0.5;entryY=0;entryDx=0;entryDy=0;exitX=0.5;exitY=1;exitDx=0;exitDy=0;labelBackgroundColor=none;labelBorderColor=none;fontColor=#FFFFFF;shadow=0;comic=0;fillColor=#ffe6cc;" edge="1" parent="zQfSphmoL-g94JaTufq7-1" source="kU-b7FJ7fmNxbk-5lAyr-43" target="kU-b7FJ7fmNxbk-5lAyr-831">
          <mxGeometry x="-503" y="-41.68000000000001" width="100" height="100" as="geometry">
            <mxPoint x="766" y="305" as="sourcePoint" />
            <mxPoint x="823" y="366" as="targetPoint" />
          </mxGeometry>
        </mxCell>
        <mxCell id="kU-b7FJ7fmNxbk-5lAyr-834" value="Variables is a container&lt;br&gt;storing data values" style="rounded=1;fillColor=#A9C4EB;strokeColor=none;strokeWidth=3;shadow=0;html=1;fontColor=#000000;" vertex="1" parent="zQfSphmoL-g94JaTufq7-1">
          <mxGeometry x="1233" y="-34" width="148" height="40" as="geometry" />
        </mxCell>
        <mxCell id="kU-b7FJ7fmNxbk-5lAyr-835" value="" style="edgeStyle=none;endArrow=none;strokeWidth=3;strokeColor=#A9C4EB;html=1;entryX=0.5;entryY=0;entryDx=0;entryDy=0;" edge="1" parent="zQfSphmoL-g94JaTufq7-1" target="kU-b7FJ7fmNxbk-5lAyr-834" source="kU-b7FJ7fmNxbk-5lAyr-786">
          <mxGeometry x="-688.4300000000001" y="-615.66" width="100" height="100" as="geometry">
            <mxPoint x="1259" y="-84.32999999999998" as="sourcePoint" />
            <mxPoint x="-588.4300000000001" y="-615.66" as="targetPoint" />
          </mxGeometry>
        </mxCell>
        <mxCell id="kU-b7FJ7fmNxbk-5lAyr-836" value="" style="edgeStyle=none;endArrow=none;strokeWidth=3;strokeColor=#A9C4EB;html=1;exitX=0.25;exitY=1;exitDx=0;exitDy=0;entryX=1;entryY=0;entryDx=0;entryDy=0;" edge="1" parent="zQfSphmoL-g94JaTufq7-1" source="kU-b7FJ7fmNxbk-5lAyr-786" target="kU-b7FJ7fmNxbk-5lAyr-776">
          <mxGeometry x="-725.4300000000001" y="-473.3299999999999" width="100" height="100" as="geometry">
            <mxPoint x="1121" y="-93.65999999999985" as="sourcePoint" />
            <mxPoint x="1115" y="117.00000000000003" as="targetPoint" />
          </mxGeometry>
        </mxCell>
        <mxCell id="kU-b7FJ7fmNxbk-5lAyr-837" value="Int , long" style="rounded=1;fillColor=#dae8fc;strokeColor=none;strokeWidth=3;shadow=0;html=1;" vertex="1" parent="zQfSphmoL-g94JaTufq7-1">
          <mxGeometry x="833" y="-95.32999999999987" width="120" height="40" as="geometry" />
        </mxCell>
        <mxCell id="kU-b7FJ7fmNxbk-5lAyr-838" value="" style="edgeStyle=none;endArrow=none;strokeWidth=3;strokeColor=#D4E1F5;html=1;entryX=1;entryY=0.5;entryDx=0;entryDy=0;exitX=0;exitY=0.25;exitDx=0;exitDy=0;fillColor=#f5f5f5;labelBackgroundColor=none;noLabel=1;fontColor=none;" edge="1" parent="zQfSphmoL-g94JaTufq7-1" target="kU-b7FJ7fmNxbk-5lAyr-837" source="kU-b7FJ7fmNxbk-5lAyr-776">
          <mxGeometry x="-916.4300000000001" y="-521.3299999999999" width="100" height="100" as="geometry">
            <mxPoint x="940" y="-20.41886363636354" as="sourcePoint" />
            <mxPoint x="924" y="69" as="targetPoint" />
          </mxGeometry>
        </mxCell>
        <mxCell id="kU-b7FJ7fmNxbk-5lAyr-839" value="Float, Double" style="rounded=1;fillColor=#dae8fc;strokeColor=none;strokeWidth=3;shadow=0;html=1;" vertex="1" parent="zQfSphmoL-g94JaTufq7-1">
          <mxGeometry x="825" y="-9.99999999999983" width="120" height="40" as="geometry" />
        </mxCell>
        <mxCell id="kU-b7FJ7fmNxbk-5lAyr-840" value="" style="edgeStyle=none;endArrow=none;strokeWidth=3;strokeColor=#D4E1F5;html=1;entryX=1;entryY=0.5;entryDx=0;entryDy=0;exitX=0;exitY=0.75;exitDx=0;exitDy=0;fillColor=#f5f5f5;labelBackgroundColor=none;noLabel=1;fontColor=none;" edge="1" parent="zQfSphmoL-g94JaTufq7-1" target="kU-b7FJ7fmNxbk-5lAyr-839" source="kU-b7FJ7fmNxbk-5lAyr-776">
          <mxGeometry x="-916.4300000000001" y="-446.3299999999999" width="100" height="100" as="geometry">
            <mxPoint x="959" y="17.000000000000114" as="sourcePoint" />
            <mxPoint x="924" y="144.00000000000003" as="targetPoint" />
          </mxGeometry>
        </mxCell>
        <mxCell id="kU-b7FJ7fmNxbk-5lAyr-841" value="Boolean" style="rounded=1;fillColor=#dae8fc;strokeColor=none;strokeWidth=3;shadow=0;html=1;" vertex="1" parent="zQfSphmoL-g94JaTufq7-1">
          <mxGeometry x="941" y="51.67000000000013" width="120" height="40" as="geometry" />
        </mxCell>
        <mxCell id="kU-b7FJ7fmNxbk-5lAyr-842" value="" style="edgeStyle=none;endArrow=none;strokeWidth=3;strokeColor=#D4E1F5;html=1;entryX=0.5;entryY=0;entryDx=0;entryDy=0;exitX=0.5;exitY=1;exitDx=0;exitDy=0;fillColor=#f5f5f5;labelBorderColor=#000000;labelBackgroundColor=#4D4D4D;" edge="1" parent="zQfSphmoL-g94JaTufq7-1" target="kU-b7FJ7fmNxbk-5lAyr-841" source="kU-b7FJ7fmNxbk-5lAyr-776">
          <mxGeometry x="-913.9300000000001" y="-356.3299999999999" width="100" height="100" as="geometry">
            <mxPoint x="961.5" y="107.00000000000011" as="sourcePoint" />
            <mxPoint x="926.5" y="234.00000000000003" as="targetPoint" />
          </mxGeometry>
        </mxCell>
        <mxCell id="kU-b7FJ7fmNxbk-5lAyr-843" value="String" style="rounded=1;fillColor=#dae8fc;strokeColor=none;strokeWidth=3;shadow=0;html=1;" vertex="1" parent="zQfSphmoL-g94JaTufq7-1">
          <mxGeometry x="974" y="-138.9999999999999" width="120" height="40" as="geometry" />
        </mxCell>
        <mxCell id="kU-b7FJ7fmNxbk-5lAyr-844" value="" style="edgeStyle=none;endArrow=none;strokeWidth=3;strokeColor=#D4E1F5;html=1;entryX=0.5;entryY=1;entryDx=0;entryDy=0;exitX=0.5;exitY=0;exitDx=0;exitDy=0;fillColor=#f5f5f5;labelBackgroundColor=#66FFFF;" edge="1" parent="zQfSphmoL-g94JaTufq7-1" target="kU-b7FJ7fmNxbk-5lAyr-843" source="kU-b7FJ7fmNxbk-5lAyr-776">
          <mxGeometry x="-787.4300000000001" y="-598.3299999999998" width="100" height="100" as="geometry">
            <mxPoint x="1062" y="-48.999999999999886" as="sourcePoint" />
            <mxPoint x="1053" y="-8" as="targetPoint" />
          </mxGeometry>
        </mxCell>
        <mxCell id="kU-b7FJ7fmNxbk-5lAyr-847" value="Char" style="rounded=1;fillColor=#dae8fc;strokeColor=none;strokeWidth=3;shadow=0;html=1;" vertex="1" parent="zQfSphmoL-g94JaTufq7-1">
          <mxGeometry x="1106" y="51.670000000000016" width="81.32" height="40" as="geometry" />
        </mxCell>
        <mxCell id="kU-b7FJ7fmNxbk-5lAyr-848" value="" style="edgeStyle=none;endArrow=none;strokeWidth=3;strokeColor=#D4E1F5;html=1;entryX=0.5;entryY=0;entryDx=0;entryDy=0;exitX=0.5;exitY=1;exitDx=0;exitDy=0;fillColor=#f5f5f5;labelBackgroundColor=#66FFFF;" edge="1" parent="zQfSphmoL-g94JaTufq7-1" target="kU-b7FJ7fmNxbk-5lAyr-847" source="kU-b7FJ7fmNxbk-5lAyr-776">
          <mxGeometry x="-656.7500000000001" y="-558.3299999999998" width="100" height="100" as="geometry">
            <mxPoint x="1025.0000000000002" y="18.840000000000032" as="sourcePoint" />
            <mxPoint x="1183.68" y="32" as="targetPoint" />
          </mxGeometry>
        </mxCell>
        <mxCell id="kU-b7FJ7fmNxbk-5lAyr-849" value="Declare :&lt;br&gt;type variable = value;" style="rounded=1;fillColor=#A9C4EB;strokeColor=none;strokeWidth=3;shadow=0;html=1;fontColor=#000000;" vertex="1" parent="zQfSphmoL-g94JaTufq7-1">
          <mxGeometry x="1019" y="-205" width="148" height="40" as="geometry" />
        </mxCell>
        <mxCell id="kU-b7FJ7fmNxbk-5lAyr-850" value="" style="edgeStyle=none;endArrow=none;strokeWidth=3;strokeColor=#A9C4EB;html=1;exitX=0.25;exitY=0;exitDx=0;exitDy=0;entryX=0.5;entryY=1;entryDx=0;entryDy=0;" edge="1" parent="zQfSphmoL-g94JaTufq7-1" target="kU-b7FJ7fmNxbk-5lAyr-849" source="kU-b7FJ7fmNxbk-5lAyr-786">
          <mxGeometry x="-651.4300000000001" y="-876.6599999999999" width="100" height="100" as="geometry">
            <mxPoint x="1253" y="-339.65999999999997" as="sourcePoint" />
            <mxPoint x="-551.4300000000001" y="-876.6599999999999" as="targetPoint" />
          </mxGeometry>
        </mxCell>
        <mxCell id="kU-b7FJ7fmNxbk-5lAyr-851" value="Const&lt;br&gt;final type variable=value;" style="rounded=1;fillColor=#A9C4EB;strokeColor=none;strokeWidth=3;shadow=0;html=1;fontColor=#000000;" vertex="1" parent="zQfSphmoL-g94JaTufq7-1">
          <mxGeometry x="1162" y="-259" width="143" height="40" as="geometry" />
        </mxCell>
        <mxCell id="kU-b7FJ7fmNxbk-5lAyr-852" value="" style="edgeStyle=none;endArrow=none;strokeWidth=3;strokeColor=#A9C4EB;html=1;exitX=0.5;exitY=0;exitDx=0;exitDy=0;entryX=0.5;entryY=1;entryDx=0;entryDy=0;" edge="1" parent="zQfSphmoL-g94JaTufq7-1" target="kU-b7FJ7fmNxbk-5lAyr-851" source="kU-b7FJ7fmNxbk-5lAyr-786">
          <mxGeometry x="-482.43000000000006" y="-837.9999999999998" width="100" height="100" as="geometry">
            <mxPoint x="1242" y="-63.999999999999886" as="sourcePoint" />
            <mxPoint x="-382.43000000000006" y="-837.9999999999998" as="targetPoint" />
          </mxGeometry>
        </mxCell>
        <mxCell id="kU-b7FJ7fmNxbk-5lAyr-853" value="Identify" style="rounded=1;fillColor=#A9C4EB;strokeColor=none;strokeWidth=3;shadow=0;html=1;fontColor=#000000;" vertex="1" parent="zQfSphmoL-g94JaTufq7-1">
          <mxGeometry x="1314" y="-202" width="85" height="40" as="geometry" />
        </mxCell>
        <mxCell id="kU-b7FJ7fmNxbk-5lAyr-854" value="" style="edgeStyle=none;endArrow=none;strokeWidth=3;strokeColor=#A9C4EB;html=1;exitX=0.75;exitY=0;exitDx=0;exitDy=0;entryX=0;entryY=1;entryDx=0;entryDy=0;" edge="1" parent="zQfSphmoL-g94JaTufq7-1" target="kU-b7FJ7fmNxbk-5lAyr-853" source="kU-b7FJ7fmNxbk-5lAyr-786">
          <mxGeometry x="-310.43000000000006" y="-819.9999999999998" width="100" height="100" as="geometry">
            <mxPoint x="1384" y="-117.33000000000004" as="sourcePoint" />
            <mxPoint x="-210.43000000000006" y="-819.9999999999998" as="targetPoint" />
          </mxGeometry>
        </mxCell>
        <mxCell id="kU-b7FJ7fmNxbk-5lAyr-857" value="Unique name with general rules :&lt;br&gt;&lt;div style=&quot;text-align: left&quot;&gt;&lt;span&gt;- Contain letter,digit,number,$ and _&lt;/span&gt;&lt;/div&gt;&lt;div style=&quot;text-align: left&quot;&gt;&lt;span&gt;- Begin with letter&lt;/span&gt;&lt;/div&gt;&lt;div style=&quot;text-align: left&quot;&gt;&lt;span&gt;- Reserved words can not be used&lt;/span&gt;&lt;/div&gt;&lt;div style=&quot;text-align: left&quot;&gt;&lt;span&gt;- Case senstitive&lt;/span&gt;&lt;/div&gt;&lt;div style=&quot;text-align: left&quot;&gt;&lt;span&gt;- Should be short and decriptive&lt;/span&gt;&lt;/div&gt;" style="rounded=1;fillColor=#dae8fc;strokeColor=none;strokeWidth=3;shadow=0;html=1;" vertex="1" parent="zQfSphmoL-g94JaTufq7-1">
          <mxGeometry x="1434" y="-299" width="207" height="88" as="geometry" />
        </mxCell>
        <mxCell id="kU-b7FJ7fmNxbk-5lAyr-858" value="" style="edgeStyle=none;endArrow=none;strokeWidth=3;strokeColor=#D4E1F5;html=1;entryX=0;entryY=1;entryDx=0;entryDy=0;exitX=1;exitY=0;exitDx=0;exitDy=0;fillColor=#f5f5f5;labelBackgroundColor=#66FFFF;" edge="1" parent="zQfSphmoL-g94JaTufq7-1" target="kU-b7FJ7fmNxbk-5lAyr-857" source="kU-b7FJ7fmNxbk-5lAyr-853">
          <mxGeometry x="-130.1500000000001" y="-880.3299999999999" width="100" height="100" as="geometry">
            <mxPoint x="1650.28" y="-273.9999999999999" as="sourcePoint" />
            <mxPoint x="1710.28" y="-290" as="targetPoint" />
          </mxGeometry>
        </mxCell>
        <mxCell id="kU-b7FJ7fmNxbk-5lAyr-859" value="Use to perform the operations &lt;br&gt;on between variables and values" style="rounded=1;fillColor=#A9C4EB;strokeColor=none;strokeWidth=3;shadow=0;html=1;fontColor=#000000;" vertex="1" parent="zQfSphmoL-g94JaTufq7-1">
          <mxGeometry x="1710" y="-171.33" width="184" height="45" as="geometry" />
        </mxCell>
        <mxCell id="kU-b7FJ7fmNxbk-5lAyr-860" value="" style="edgeStyle=none;endArrow=none;strokeWidth=3;strokeColor=#3399FF;html=1;entryX=0.75;entryY=1;entryDx=0;entryDy=0;exitX=0;exitY=0;exitDx=0;exitDy=0;" edge="1" parent="zQfSphmoL-g94JaTufq7-1" source="kU-b7FJ7fmNxbk-5lAyr-876" target="kU-b7FJ7fmNxbk-5lAyr-859">
          <mxGeometry x="230.56999999999994" y="-948.1899999999997" width="100" height="100" as="geometry">
            <mxPoint x="1876" y="-85.81" as="sourcePoint" />
            <mxPoint x="1858" y="-285.19" as="targetPoint" />
            <Array as="points" />
          </mxGeometry>
        </mxCell>
        <mxCell id="kU-b7FJ7fmNxbk-5lAyr-861" value="Addition" style="rounded=1;fillColor=#A9C4EB;strokeColor=none;strokeWidth=3;shadow=0;html=1;fontColor=#000000;" vertex="1" parent="zQfSphmoL-g94JaTufq7-1">
          <mxGeometry x="1807" y="-495" width="87" height="45" as="geometry" />
        </mxCell>
        <mxCell id="kU-b7FJ7fmNxbk-5lAyr-863" value="" style="edgeStyle=none;endArrow=none;strokeWidth=3;strokeColor=#A9C4EB;html=1;entryX=1;entryY=1;entryDx=0;entryDy=0;exitX=0;exitY=0;exitDx=0;exitDy=0;" edge="1" parent="zQfSphmoL-g94JaTufq7-1" source="kU-b7FJ7fmNxbk-5lAyr-777" target="kU-b7FJ7fmNxbk-5lAyr-861">
          <mxGeometry x="190.0699999999999" y="-1125.9999999999998" width="100" height="100" as="geometry">
            <mxPoint x="1928.5" y="-406" as="sourcePoint" />
            <mxPoint x="1837.5" y="-446" as="targetPoint" />
          </mxGeometry>
        </mxCell>
        <mxCell id="kU-b7FJ7fmNxbk-5lAyr-864" value="Subtraction" style="rounded=1;fillColor=#A9C4EB;strokeColor=none;strokeWidth=3;shadow=0;html=1;fontColor=#000000;" vertex="1" parent="zQfSphmoL-g94JaTufq7-1">
          <mxGeometry x="1951" y="-530" width="87" height="45" as="geometry" />
        </mxCell>
        <mxCell id="kU-b7FJ7fmNxbk-5lAyr-865" value="" style="edgeStyle=none;endArrow=none;strokeWidth=3;strokeColor=#A9C4EB;html=1;entryX=0.5;entryY=1;entryDx=0;entryDy=0;exitX=0.5;exitY=0;exitDx=0;exitDy=0;" edge="1" parent="zQfSphmoL-g94JaTufq7-1" target="kU-b7FJ7fmNxbk-5lAyr-864" source="kU-b7FJ7fmNxbk-5lAyr-777">
          <mxGeometry x="290.06999999999994" y="-1142.9999999999998" width="100" height="100" as="geometry">
            <mxPoint x="1978.5" y="-417" as="sourcePoint" />
            <mxPoint x="1937.5" y="-463" as="targetPoint" />
          </mxGeometry>
        </mxCell>
        <mxCell id="kU-b7FJ7fmNxbk-5lAyr-866" value="Division" style="rounded=1;fillColor=#A9C4EB;strokeColor=none;strokeWidth=3;shadow=0;html=1;fontColor=#000000;" vertex="1" parent="zQfSphmoL-g94JaTufq7-1">
          <mxGeometry x="2067" y="-505" width="87" height="45" as="geometry" />
        </mxCell>
        <mxCell id="kU-b7FJ7fmNxbk-5lAyr-867" value="" style="edgeStyle=none;endArrow=none;strokeWidth=3;strokeColor=#A9C4EB;html=1;entryX=0;entryY=1;entryDx=0;entryDy=0;exitX=1;exitY=0;exitDx=0;exitDy=0;" edge="1" parent="zQfSphmoL-g94JaTufq7-1" target="kU-b7FJ7fmNxbk-5lAyr-866" source="kU-b7FJ7fmNxbk-5lAyr-777">
          <mxGeometry x="403.06999999999994" y="-1125.9999999999998" width="100" height="100" as="geometry">
            <mxPoint x="2091.5" y="-400" as="sourcePoint" />
            <mxPoint x="2050.5" y="-446" as="targetPoint" />
          </mxGeometry>
        </mxCell>
        <mxCell id="kU-b7FJ7fmNxbk-5lAyr-868" value="Multiplication" style="rounded=1;fillColor=#A9C4EB;strokeColor=none;strokeWidth=3;shadow=0;html=1;fontColor=#000000;" vertex="1" parent="zQfSphmoL-g94JaTufq7-1">
          <mxGeometry x="2097" y="-437" width="87" height="45" as="geometry" />
        </mxCell>
        <mxCell id="kU-b7FJ7fmNxbk-5lAyr-869" value="" style="edgeStyle=none;endArrow=none;strokeWidth=3;strokeColor=#A9C4EB;html=1;entryX=0;entryY=0.5;entryDx=0;entryDy=0;exitX=1;exitY=0.5;exitDx=0;exitDy=0;" edge="1" parent="zQfSphmoL-g94JaTufq7-1" target="kU-b7FJ7fmNxbk-5lAyr-868" source="kU-b7FJ7fmNxbk-5lAyr-777">
          <mxGeometry x="498.06999999999994" y="-1033.9999999999998" width="100" height="100" as="geometry">
            <mxPoint x="2073.5" y="-324" as="sourcePoint" />
            <mxPoint x="2145.5" y="-354" as="targetPoint" />
          </mxGeometry>
        </mxCell>
        <mxCell id="kU-b7FJ7fmNxbk-5lAyr-870" value="Modulus (%)" style="rounded=1;fillColor=#A9C4EB;strokeColor=none;strokeWidth=3;shadow=0;html=1;fontColor=#000000;" vertex="1" parent="zQfSphmoL-g94JaTufq7-1">
          <mxGeometry x="1786.5" y="-367" width="87" height="45" as="geometry" />
        </mxCell>
        <mxCell id="kU-b7FJ7fmNxbk-5lAyr-871" value="Decrement(--)" style="rounded=1;fillColor=#A9C4EB;strokeColor=none;strokeWidth=3;shadow=0;html=1;fontColor=#000000;" vertex="1" parent="zQfSphmoL-g94JaTufq7-1">
          <mxGeometry x="1971" y="-322" width="87" height="45" as="geometry" />
        </mxCell>
        <mxCell id="kU-b7FJ7fmNxbk-5lAyr-872" value="Increment(++)" style="rounded=1;fillColor=#A9C4EB;strokeColor=none;strokeWidth=3;shadow=0;html=1;fontColor=#000000;" vertex="1" parent="zQfSphmoL-g94JaTufq7-1">
          <mxGeometry x="2076" y="-352" width="87" height="45" as="geometry" />
        </mxCell>
        <mxCell id="kU-b7FJ7fmNxbk-5lAyr-873" value="" style="edgeStyle=none;endArrow=none;strokeWidth=3;strokeColor=#A9C4EB;html=1;entryX=0;entryY=0;entryDx=0;entryDy=0;exitX=1;exitY=1;exitDx=0;exitDy=0;" edge="1" parent="zQfSphmoL-g94JaTufq7-1" source="kU-b7FJ7fmNxbk-5lAyr-777" target="kU-b7FJ7fmNxbk-5lAyr-872">
          <mxGeometry x="508.06999999999994" y="-1023.9999999999998" width="100" height="100" as="geometry">
            <mxPoint x="2048.5" y="-386" as="sourcePoint" />
            <mxPoint x="2120.5" y="-370.5" as="targetPoint" />
          </mxGeometry>
        </mxCell>
        <mxCell id="kU-b7FJ7fmNxbk-5lAyr-874" value="" style="edgeStyle=none;endArrow=none;strokeWidth=3;strokeColor=#A9C4EB;html=1;entryX=0.5;entryY=0;entryDx=0;entryDy=0;exitX=0.5;exitY=1;exitDx=0;exitDy=0;" edge="1" parent="zQfSphmoL-g94JaTufq7-1" source="kU-b7FJ7fmNxbk-5lAyr-777" target="kU-b7FJ7fmNxbk-5lAyr-871">
          <mxGeometry x="430.56999999999994" y="-1015.9999999999998" width="100" height="100" as="geometry">
            <mxPoint x="1901" y="-368" as="sourcePoint" />
            <mxPoint x="2030.5" y="-294" as="targetPoint" />
          </mxGeometry>
        </mxCell>
        <mxCell id="kU-b7FJ7fmNxbk-5lAyr-875" value="" style="edgeStyle=none;endArrow=none;strokeWidth=3;strokeColor=#A9C4EB;html=1;entryX=1;entryY=0;entryDx=0;entryDy=0;exitX=0;exitY=1;exitDx=0;exitDy=0;" edge="1" parent="zQfSphmoL-g94JaTufq7-1" source="kU-b7FJ7fmNxbk-5lAyr-777" target="kU-b7FJ7fmNxbk-5lAyr-870">
          <mxGeometry x="395.56999999999994" y="-1005.9999999999998" width="100" height="100" as="geometry">
            <mxPoint x="1943.5" y="-366" as="sourcePoint" />
            <mxPoint x="1952" y="-287.33000000000004" as="targetPoint" />
          </mxGeometry>
        </mxCell>
        <mxCell id="kU-b7FJ7fmNxbk-5lAyr-876" value="Operators" style="rounded=1;fillColor=#64BBE2;strokeColor=none;strokeWidth=3;shadow=0;html=1;fontColor=#FFFFFF;" vertex="1" parent="zQfSphmoL-g94JaTufq7-1">
          <mxGeometry x="1891" y="-86.99999999999994" width="120" height="40" as="geometry" />
        </mxCell>
        <mxCell id="kU-b7FJ7fmNxbk-5lAyr-878" value="" style="edgeStyle=none;endArrow=none;strokeWidth=3;strokeColor=#007FFF;html=1;exitX=0.5;exitY=0;exitDx=0;exitDy=0;entryX=0.315;entryY=1.021;entryDx=0;entryDy=0;entryPerimeter=0;" edge="1" parent="zQfSphmoL-g94JaTufq7-1" source="kU-b7FJ7fmNxbk-5lAyr-876" target="kU-b7FJ7fmNxbk-5lAyr-777">
          <mxGeometry x="-357.3500000000001" y="-849.3299999999999" width="100" height="100" as="geometry">
            <mxPoint x="1704.0000000000036" y="-25.329999999999927" as="sourcePoint" />
            <mxPoint x="1775" y="-45.32999999999993" as="targetPoint" />
          </mxGeometry>
        </mxCell>
        <mxCell id="kU-b7FJ7fmNxbk-5lAyr-879" value="Logical" style="rounded=1;fillColor=#64BBE2;strokeColor=none;strokeWidth=3;shadow=0;html=1;fontColor=#000000;" vertex="1" parent="zQfSphmoL-g94JaTufq7-1">
          <mxGeometry x="2199" y="86.33" width="79.29" height="40" as="geometry" />
        </mxCell>
        <mxCell id="kU-b7FJ7fmNxbk-5lAyr-882" value="&amp;amp;&amp;amp;" style="rounded=1;fillColor=#A9C4EB;strokeColor=none;strokeWidth=3;shadow=0;html=1;fontColor=#000000;" vertex="1" parent="zQfSphmoL-g94JaTufq7-1">
          <mxGeometry x="2211" y="8.669999999999995" width="59.67" height="34.67" as="geometry" />
        </mxCell>
        <mxCell id="kU-b7FJ7fmNxbk-5lAyr-883" value="" style="edgeStyle=none;endArrow=none;strokeWidth=3;strokeColor=#A9C4EB;html=1;entryX=0.5;entryY=1;entryDx=0;entryDy=0;" edge="1" parent="zQfSphmoL-g94JaTufq7-1" target="kU-b7FJ7fmNxbk-5lAyr-882">
          <mxGeometry x="529.8599999999999" y="-640.6699999999997" width="100" height="100" as="geometry">
            <mxPoint x="2241" y="88.33" as="sourcePoint" />
            <mxPoint x="2177.29" y="39.33" as="targetPoint" />
          </mxGeometry>
        </mxCell>
        <mxCell id="kU-b7FJ7fmNxbk-5lAyr-884" value="||" style="rounded=1;fillColor=#A9C4EB;strokeColor=none;strokeWidth=3;shadow=0;html=1;fontColor=#000000;" vertex="1" parent="zQfSphmoL-g94JaTufq7-1">
          <mxGeometry x="2298" y="144.32999999999998" width="40" height="35" as="geometry" />
        </mxCell>
        <mxCell id="kU-b7FJ7fmNxbk-5lAyr-885" value="" style="edgeStyle=none;endArrow=none;strokeWidth=3;strokeColor=#A9C4EB;html=1;entryX=0;entryY=0;entryDx=0;entryDy=0;exitX=1;exitY=1;exitDx=0;exitDy=0;" edge="1" parent="zQfSphmoL-g94JaTufq7-1" source="kU-b7FJ7fmNxbk-5lAyr-879" target="kU-b7FJ7fmNxbk-5lAyr-884">
          <mxGeometry x="642.86" y="-623.6699999999997" width="100" height="100" as="geometry">
            <mxPoint x="2331.29" y="102.33" as="sourcePoint" />
            <mxPoint x="2290.29" y="56.33" as="targetPoint" />
          </mxGeometry>
        </mxCell>
        <mxCell id="kU-b7FJ7fmNxbk-5lAyr-886" value="!" style="rounded=1;fillColor=#A9C4EB;strokeColor=none;strokeWidth=3;shadow=0;html=1;fontColor=#000000;" vertex="1" parent="zQfSphmoL-g94JaTufq7-1">
          <mxGeometry x="2130" y="141.32999999999998" width="51" height="41" as="geometry" />
        </mxCell>
        <mxCell id="kU-b7FJ7fmNxbk-5lAyr-887" value="" style="edgeStyle=none;endArrow=none;strokeWidth=3;strokeColor=#A9C4EB;html=1;entryX=1;entryY=0;entryDx=0;entryDy=0;exitX=0;exitY=1;exitDx=0;exitDy=0;" edge="1" parent="zQfSphmoL-g94JaTufq7-1" source="kU-b7FJ7fmNxbk-5lAyr-879" target="kU-b7FJ7fmNxbk-5lAyr-886">
          <mxGeometry x="737.86" y="-531.6699999999997" width="100" height="100" as="geometry">
            <mxPoint x="2313.29" y="178.32999999999998" as="sourcePoint" />
            <mxPoint x="2385.29" y="148.32999999999998" as="targetPoint" />
          </mxGeometry>
        </mxCell>
        <mxCell id="kU-b7FJ7fmNxbk-5lAyr-894" value="" style="edgeStyle=none;endArrow=none;strokeWidth=3;strokeColor=#007FFF;html=1;exitX=1;exitY=1;exitDx=0;exitDy=0;entryX=0;entryY=0.25;entryDx=0;entryDy=0;" edge="1" parent="zQfSphmoL-g94JaTufq7-1" target="kU-b7FJ7fmNxbk-5lAyr-879" source="kU-b7FJ7fmNxbk-5lAyr-876">
          <mxGeometry x="-282.1400000000001" y="-530.3299999999999" width="100" height="100" as="geometry">
            <mxPoint x="2009.21" y="240" as="sourcePoint" />
            <mxPoint x="2124" y="73" as="targetPoint" />
          </mxGeometry>
        </mxCell>
        <mxCell id="kU-b7FJ7fmNxbk-5lAyr-895" value="Comparision" style="rounded=1;fillColor=#64BBE2;strokeColor=none;strokeWidth=3;shadow=0;html=1;fontColor=#000000;" vertex="1" parent="zQfSphmoL-g94JaTufq7-1">
          <mxGeometry x="1703.29" y="145.00000000000006" width="120" height="40" as="geometry" />
        </mxCell>
        <mxCell id="kU-b7FJ7fmNxbk-5lAyr-896" value="===" style="rounded=1;fillColor=#A9C4EB;strokeColor=none;strokeWidth=3;shadow=0;html=1;fontColor=#000000;" vertex="1" parent="zQfSphmoL-g94JaTufq7-1">
          <mxGeometry x="1598" y="73" width="87" height="45" as="geometry" />
        </mxCell>
        <mxCell id="kU-b7FJ7fmNxbk-5lAyr-897" value="" style="edgeStyle=none;endArrow=none;strokeWidth=3;strokeColor=#A9C4EB;html=1;entryX=1;entryY=1;entryDx=0;entryDy=0;exitX=0;exitY=0;exitDx=0;exitDy=0;" edge="1" parent="zQfSphmoL-g94JaTufq7-1" source="kU-b7FJ7fmNxbk-5lAyr-895" target="kU-b7FJ7fmNxbk-5lAyr-896">
          <mxGeometry x="-25.1400000000001" y="-564.9999999999998" width="100" height="100" as="geometry">
            <mxPoint x="1713.29" y="155" as="sourcePoint" />
            <mxPoint x="1622.29" y="115" as="targetPoint" />
          </mxGeometry>
        </mxCell>
        <mxCell id="kU-b7FJ7fmNxbk-5lAyr-898" value="==" style="rounded=1;fillColor=#A9C4EB;strokeColor=none;strokeWidth=3;shadow=0;html=1;fontColor=#000000;" vertex="1" parent="zQfSphmoL-g94JaTufq7-1">
          <mxGeometry x="1718" y="37" width="87" height="45" as="geometry" />
        </mxCell>
        <mxCell id="kU-b7FJ7fmNxbk-5lAyr-899" value="" style="edgeStyle=none;endArrow=none;strokeWidth=3;strokeColor=#A9C4EB;html=1;entryX=0.5;entryY=1;entryDx=0;entryDy=0;exitX=0.5;exitY=0;exitDx=0;exitDy=0;" edge="1" parent="zQfSphmoL-g94JaTufq7-1" source="kU-b7FJ7fmNxbk-5lAyr-895" target="kU-b7FJ7fmNxbk-5lAyr-898">
          <mxGeometry x="74.8599999999999" y="-581.9999999999998" width="100" height="100" as="geometry">
            <mxPoint x="1763.29" y="144" as="sourcePoint" />
            <mxPoint x="1722.29" y="98" as="targetPoint" />
          </mxGeometry>
        </mxCell>
        <mxCell id="kU-b7FJ7fmNxbk-5lAyr-900" value="&amp;gt;=" style="rounded=1;fillColor=#A9C4EB;strokeColor=none;strokeWidth=3;shadow=0;html=1;fontColor=#000000;" vertex="1" parent="zQfSphmoL-g94JaTufq7-1">
          <mxGeometry x="1864" y="77" width="87" height="45" as="geometry" />
        </mxCell>
        <mxCell id="kU-b7FJ7fmNxbk-5lAyr-901" value="" style="edgeStyle=none;endArrow=none;strokeWidth=3;strokeColor=#A9C4EB;html=1;entryX=0;entryY=1;entryDx=0;entryDy=0;exitX=1;exitY=0;exitDx=0;exitDy=0;" edge="1" parent="zQfSphmoL-g94JaTufq7-1" source="kU-b7FJ7fmNxbk-5lAyr-895" target="kU-b7FJ7fmNxbk-5lAyr-900">
          <mxGeometry x="187.86" y="-564.9999999999998" width="100" height="100" as="geometry">
            <mxPoint x="1876.29" y="161" as="sourcePoint" />
            <mxPoint x="1835.29" y="115" as="targetPoint" />
          </mxGeometry>
        </mxCell>
        <mxCell id="kU-b7FJ7fmNxbk-5lAyr-902" value="&amp;lt;=" style="rounded=1;fillColor=#A9C4EB;strokeColor=none;strokeWidth=3;shadow=0;html=1;fontColor=#000000;" vertex="1" parent="zQfSphmoL-g94JaTufq7-1">
          <mxGeometry x="1873.5" y="148" width="87" height="45" as="geometry" />
        </mxCell>
        <mxCell id="kU-b7FJ7fmNxbk-5lAyr-903" value="" style="edgeStyle=none;endArrow=none;strokeWidth=3;strokeColor=#A9C4EB;html=1;entryX=0;entryY=0.5;entryDx=0;entryDy=0;exitX=1;exitY=0.5;exitDx=0;exitDy=0;" edge="1" parent="zQfSphmoL-g94JaTufq7-1" source="kU-b7FJ7fmNxbk-5lAyr-895" target="kU-b7FJ7fmNxbk-5lAyr-902">
          <mxGeometry x="282.86" y="-472.9999999999998" width="100" height="100" as="geometry">
            <mxPoint x="1858.29" y="237" as="sourcePoint" />
            <mxPoint x="1930.29" y="207" as="targetPoint" />
          </mxGeometry>
        </mxCell>
        <mxCell id="kU-b7FJ7fmNxbk-5lAyr-904" value="!=" style="rounded=1;fillColor=#A9C4EB;strokeColor=none;strokeWidth=3;shadow=0;html=1;fontColor=#000000;" vertex="1" parent="zQfSphmoL-g94JaTufq7-1">
          <mxGeometry x="1596" y="199" width="87" height="45" as="geometry" />
        </mxCell>
        <mxCell id="kU-b7FJ7fmNxbk-5lAyr-905" value="&amp;lt;" style="rounded=1;fillColor=#A9C4EB;strokeColor=none;strokeWidth=3;shadow=0;html=1;fontColor=#000000;" vertex="1" parent="zQfSphmoL-g94JaTufq7-1">
          <mxGeometry x="1718" y="232" width="87" height="45" as="geometry" />
        </mxCell>
        <mxCell id="kU-b7FJ7fmNxbk-5lAyr-906" value="&amp;gt;" style="rounded=1;fillColor=#A9C4EB;strokeColor=none;strokeWidth=3;shadow=0;html=1;fontColor=#000000;" vertex="1" parent="zQfSphmoL-g94JaTufq7-1">
          <mxGeometry x="1847" y="221" width="87" height="45" as="geometry" />
        </mxCell>
        <mxCell id="kU-b7FJ7fmNxbk-5lAyr-907" value="" style="edgeStyle=none;endArrow=none;strokeWidth=3;strokeColor=#A9C4EB;html=1;entryX=0;entryY=0;entryDx=0;entryDy=0;exitX=1;exitY=1;exitDx=0;exitDy=0;" edge="1" parent="zQfSphmoL-g94JaTufq7-1" source="kU-b7FJ7fmNxbk-5lAyr-895" target="kU-b7FJ7fmNxbk-5lAyr-906">
          <mxGeometry x="292.86" y="-462.9999999999998" width="100" height="100" as="geometry">
            <mxPoint x="1833.29" y="175" as="sourcePoint" />
            <mxPoint x="1905.29" y="190.5" as="targetPoint" />
          </mxGeometry>
        </mxCell>
        <mxCell id="kU-b7FJ7fmNxbk-5lAyr-908" value="" style="edgeStyle=none;endArrow=none;strokeWidth=3;strokeColor=#A9C4EB;html=1;entryX=0.5;entryY=0;entryDx=0;entryDy=0;exitX=0.5;exitY=1;exitDx=0;exitDy=0;" edge="1" parent="zQfSphmoL-g94JaTufq7-1" source="kU-b7FJ7fmNxbk-5lAyr-895" target="kU-b7FJ7fmNxbk-5lAyr-905">
          <mxGeometry x="215.36" y="-454.9999999999998" width="100" height="100" as="geometry">
            <mxPoint x="1685.79" y="193" as="sourcePoint" />
            <mxPoint x="1815.29" y="267" as="targetPoint" />
          </mxGeometry>
        </mxCell>
        <mxCell id="kU-b7FJ7fmNxbk-5lAyr-909" value="" style="edgeStyle=none;endArrow=none;strokeWidth=3;strokeColor=#A9C4EB;html=1;entryX=1;entryY=0;entryDx=0;entryDy=0;exitX=0;exitY=1;exitDx=0;exitDy=0;" edge="1" parent="zQfSphmoL-g94JaTufq7-1" source="kU-b7FJ7fmNxbk-5lAyr-895" target="kU-b7FJ7fmNxbk-5lAyr-904">
          <mxGeometry x="180.36" y="-444.9999999999998" width="100" height="100" as="geometry">
            <mxPoint x="1728.29" y="195" as="sourcePoint" />
            <mxPoint x="1736.79" y="273.66999999999996" as="targetPoint" />
          </mxGeometry>
        </mxCell>
        <mxCell id="kU-b7FJ7fmNxbk-5lAyr-910" value="" style="edgeStyle=none;endArrow=none;strokeWidth=3;strokeColor=#007FFF;html=1;exitX=0.5;exitY=1;exitDx=0;exitDy=0;entryX=0.75;entryY=0;entryDx=0;entryDy=0;" edge="1" parent="zQfSphmoL-g94JaTufq7-1" source="kU-b7FJ7fmNxbk-5lAyr-876" target="kU-b7FJ7fmNxbk-5lAyr-895">
          <mxGeometry x="-272.1400000000001" y="-520.3299999999999" width="100" height="100" as="geometry">
            <mxPoint x="1944" y="-29" as="sourcePoint" />
            <mxPoint x="2134" y="83" as="targetPoint" />
          </mxGeometry>
        </mxCell>
        <mxCell id="kU-b7FJ7fmNxbk-5lAyr-911" value="Assignment" style="rounded=1;fillColor=#64BBE2;strokeColor=none;strokeWidth=3;shadow=0;html=1;fontColor=#000000;" vertex="1" parent="zQfSphmoL-g94JaTufq7-1">
          <mxGeometry x="2306.29" y="-216.32999999999996" width="120" height="40" as="geometry" />
        </mxCell>
        <mxCell id="kU-b7FJ7fmNxbk-5lAyr-912" value="^=" style="rounded=1;fillColor=#A9C4EB;strokeColor=none;strokeWidth=3;shadow=0;html=1;fontColor=#000000;" vertex="1" parent="zQfSphmoL-g94JaTufq7-1">
          <mxGeometry x="2228" y="-295.33" width="87" height="45" as="geometry" />
        </mxCell>
        <mxCell id="kU-b7FJ7fmNxbk-5lAyr-913" value="" style="edgeStyle=none;endArrow=none;strokeWidth=3;strokeColor=#A9C4EB;html=1;entryX=1;entryY=1;entryDx=0;entryDy=0;exitX=0.25;exitY=0;exitDx=0;exitDy=0;" edge="1" parent="zQfSphmoL-g94JaTufq7-1" source="kU-b7FJ7fmNxbk-5lAyr-911" target="kU-b7FJ7fmNxbk-5lAyr-912">
          <mxGeometry x="577.8599999999999" y="-926.3299999999998" width="100" height="100" as="geometry">
            <mxPoint x="2316.29" y="-206.33" as="sourcePoint" />
            <mxPoint x="2225.29" y="-246.33" as="targetPoint" />
          </mxGeometry>
        </mxCell>
        <mxCell id="kU-b7FJ7fmNxbk-5lAyr-914" value="=" style="rounded=1;fillColor=#A9C4EB;strokeColor=none;strokeWidth=3;shadow=0;html=1;fontColor=#000000;" vertex="1" parent="zQfSphmoL-g94JaTufq7-1">
          <mxGeometry x="2339.29" y="-331.33" width="87" height="45" as="geometry" />
        </mxCell>
        <mxCell id="kU-b7FJ7fmNxbk-5lAyr-915" value="" style="edgeStyle=none;endArrow=none;strokeWidth=3;strokeColor=#A9C4EB;html=1;entryX=0.5;entryY=1;entryDx=0;entryDy=0;exitX=0.569;exitY=0.05;exitDx=0;exitDy=0;exitPerimeter=0;" edge="1" parent="zQfSphmoL-g94JaTufq7-1" source="kU-b7FJ7fmNxbk-5lAyr-911" target="kU-b7FJ7fmNxbk-5lAyr-914">
          <mxGeometry x="677.8599999999999" y="-943.3299999999998" width="100" height="100" as="geometry">
            <mxPoint x="2366.29" y="-217.33" as="sourcePoint" />
            <mxPoint x="2325.29" y="-263.33" as="targetPoint" />
          </mxGeometry>
        </mxCell>
        <mxCell id="kU-b7FJ7fmNxbk-5lAyr-916" value="+=" style="rounded=1;fillColor=#A9C4EB;strokeColor=none;strokeWidth=3;shadow=0;html=1;fontColor=#000000;" vertex="1" parent="zQfSphmoL-g94JaTufq7-1">
          <mxGeometry x="2439" y="-298.33" width="87" height="45" as="geometry" />
        </mxCell>
        <mxCell id="kU-b7FJ7fmNxbk-5lAyr-917" value="" style="edgeStyle=none;endArrow=none;strokeWidth=3;strokeColor=#A9C4EB;html=1;entryX=0.5;entryY=1;entryDx=0;entryDy=0;exitX=1;exitY=0;exitDx=0;exitDy=0;" edge="1" parent="zQfSphmoL-g94JaTufq7-1" source="kU-b7FJ7fmNxbk-5lAyr-911" target="kU-b7FJ7fmNxbk-5lAyr-916">
          <mxGeometry x="790.86" y="-926.3299999999998" width="100" height="100" as="geometry">
            <mxPoint x="2479.29" y="-200.33" as="sourcePoint" />
            <mxPoint x="2438.29" y="-246.33" as="targetPoint" />
          </mxGeometry>
        </mxCell>
        <mxCell id="kU-b7FJ7fmNxbk-5lAyr-918" value="-=" style="rounded=1;fillColor=#A9C4EB;strokeColor=none;strokeWidth=3;shadow=0;html=1;fontColor=#000000;" vertex="1" parent="zQfSphmoL-g94JaTufq7-1">
          <mxGeometry x="2470.5" y="-216.33" width="87" height="45" as="geometry" />
        </mxCell>
        <mxCell id="kU-b7FJ7fmNxbk-5lAyr-919" value="" style="edgeStyle=none;endArrow=none;strokeWidth=3;strokeColor=#A9C4EB;html=1;entryX=0;entryY=0.5;entryDx=0;entryDy=0;exitX=1;exitY=0.5;exitDx=0;exitDy=0;" edge="1" parent="zQfSphmoL-g94JaTufq7-1" source="kU-b7FJ7fmNxbk-5lAyr-911" target="kU-b7FJ7fmNxbk-5lAyr-918">
          <mxGeometry x="885.86" y="-834.3299999999998" width="100" height="100" as="geometry">
            <mxPoint x="2461.29" y="-124.33" as="sourcePoint" />
            <mxPoint x="2533.29" y="-154.33" as="targetPoint" />
          </mxGeometry>
        </mxCell>
        <mxCell id="kU-b7FJ7fmNxbk-5lAyr-920" value="%=" style="rounded=1;fillColor=#A9C4EB;strokeColor=none;strokeWidth=3;shadow=0;html=1;fontColor=#000000;" vertex="1" parent="zQfSphmoL-g94JaTufq7-1">
          <mxGeometry x="2208.5" y="-151.33" width="87" height="45" as="geometry" />
        </mxCell>
        <mxCell id="kU-b7FJ7fmNxbk-5lAyr-921" value="/=" style="rounded=1;fillColor=#A9C4EB;strokeColor=none;strokeWidth=3;shadow=0;html=1;fontColor=#000000;" vertex="1" parent="zQfSphmoL-g94JaTufq7-1">
          <mxGeometry x="2331.5" y="-140.33" width="87" height="45" as="geometry" />
        </mxCell>
        <mxCell id="kU-b7FJ7fmNxbk-5lAyr-922" value="*=" style="rounded=1;fillColor=#A9C4EB;strokeColor=none;strokeWidth=3;shadow=0;html=1;fontColor=#000000;" vertex="1" parent="zQfSphmoL-g94JaTufq7-1">
          <mxGeometry x="2445" y="-151.33" width="87" height="45" as="geometry" />
        </mxCell>
        <mxCell id="kU-b7FJ7fmNxbk-5lAyr-923" value="" style="edgeStyle=none;endArrow=none;strokeWidth=3;strokeColor=#A9C4EB;html=1;entryX=0;entryY=0;entryDx=0;entryDy=0;exitX=1;exitY=1;exitDx=0;exitDy=0;" edge="1" parent="zQfSphmoL-g94JaTufq7-1" source="kU-b7FJ7fmNxbk-5lAyr-911" target="kU-b7FJ7fmNxbk-5lAyr-922">
          <mxGeometry x="895.86" y="-824.3299999999998" width="100" height="100" as="geometry">
            <mxPoint x="2436.29" y="-186.33" as="sourcePoint" />
            <mxPoint x="2508.29" y="-170.83" as="targetPoint" />
          </mxGeometry>
        </mxCell>
        <mxCell id="kU-b7FJ7fmNxbk-5lAyr-924" value="" style="edgeStyle=none;endArrow=none;strokeWidth=3;strokeColor=#A9C4EB;html=1;entryX=0.5;entryY=0;entryDx=0;entryDy=0;exitX=0.5;exitY=1;exitDx=0;exitDy=0;" edge="1" parent="zQfSphmoL-g94JaTufq7-1" source="kU-b7FJ7fmNxbk-5lAyr-911" target="kU-b7FJ7fmNxbk-5lAyr-921">
          <mxGeometry x="818.36" y="-816.3299999999998" width="100" height="100" as="geometry">
            <mxPoint x="2288.79" y="-168.33" as="sourcePoint" />
            <mxPoint x="2418.29" y="-94.33" as="targetPoint" />
          </mxGeometry>
        </mxCell>
        <mxCell id="kU-b7FJ7fmNxbk-5lAyr-925" value="" style="edgeStyle=none;endArrow=none;strokeWidth=3;strokeColor=#A9C4EB;html=1;entryX=1;entryY=0;entryDx=0;entryDy=0;exitX=0;exitY=1;exitDx=0;exitDy=0;" edge="1" parent="zQfSphmoL-g94JaTufq7-1" source="kU-b7FJ7fmNxbk-5lAyr-911" target="kU-b7FJ7fmNxbk-5lAyr-920">
          <mxGeometry x="783.36" y="-806.3299999999998" width="100" height="100" as="geometry">
            <mxPoint x="2331.29" y="-166.33" as="sourcePoint" />
            <mxPoint x="2339.79" y="-87.66000000000004" as="targetPoint" />
          </mxGeometry>
        </mxCell>
        <mxCell id="kU-b7FJ7fmNxbk-5lAyr-926" value="" style="edgeStyle=none;endArrow=none;strokeWidth=3;strokeColor=#007FFF;html=1;exitX=1;exitY=0;exitDx=0;exitDy=0;entryX=0;entryY=0.5;entryDx=0;entryDy=0;" edge="1" parent="zQfSphmoL-g94JaTufq7-1" source="kU-b7FJ7fmNxbk-5lAyr-876" target="kU-b7FJ7fmNxbk-5lAyr-911">
          <mxGeometry x="-280.2800000000001" y="-660.3299999999999" width="100" height="100" as="geometry">
            <mxPoint x="2012.86" y="-177" as="sourcePoint" />
            <mxPoint x="2301.15" y="12" as="targetPoint" />
          </mxGeometry>
        </mxCell>
        <mxCell id="kU-b7FJ7fmNxbk-5lAyr-927" value="Tenary Operator" style="rounded=1;fillColor=#f08e81;strokeColor=none;strokeWidth=3;shadow=0;html=1;fontColor=#FFFFFF;" vertex="1" parent="zQfSphmoL-g94JaTufq7-1">
          <mxGeometry x="2090" y="874" width="120" height="40" as="geometry" />
        </mxCell>
        <mxCell id="kU-b7FJ7fmNxbk-5lAyr-928" value="" style="edgeStyle=none;endArrow=none;strokeWidth=3;strokeColor=#F08E81;html=1;exitX=0.558;exitY=0.996;exitDx=0;exitDy=0;exitPerimeter=0;" edge="1" parent="zQfSphmoL-g94JaTufq7-1" target="kU-b7FJ7fmNxbk-5lAyr-927" source="kU-b7FJ7fmNxbk-5lAyr-3">
          <mxGeometry x="624" y="440" width="100" height="100" as="geometry">
            <mxPoint x="2140" y="690" as="sourcePoint" />
            <mxPoint x="724" y="440" as="targetPoint" />
          </mxGeometry>
        </mxCell>
        <mxCell id="kU-b7FJ7fmNxbk-5lAyr-929" value="Break/&lt;br&gt;Cotinue" style="ellipse;whiteSpace=wrap;html=1;shadow=0;fontFamily=Helvetica;fontSize=20;fontColor=#FFFFFF;align=center;strokeWidth=3;fillColor=#F08705;strokeColor=none;gradientColor=none;" vertex="1" parent="zQfSphmoL-g94JaTufq7-1">
          <mxGeometry x="973" y="1559.33" width="120" height="120" as="geometry" />
        </mxCell>
        <mxCell id="kU-b7FJ7fmNxbk-5lAyr-930" value="CONTINUE" style="rounded=1;fillColor=#f5af58;strokeColor=none;strokeWidth=3;shadow=0;html=1;fontColor=#FFFFFF;" vertex="1" parent="zQfSphmoL-g94JaTufq7-1">
          <mxGeometry x="733" y="1690.33" width="160" height="40" as="geometry" />
        </mxCell>
        <mxCell id="kU-b7FJ7fmNxbk-5lAyr-931" style="endArrow=none;strokeWidth=6;strokeColor=#f08705;html=1;exitX=0.5;exitY=1;exitDx=0;exitDy=0;" edge="1" parent="zQfSphmoL-g94JaTufq7-1" target="kU-b7FJ7fmNxbk-5lAyr-929" source="kU-b7FJ7fmNxbk-5lAyr-166">
          <mxGeometry relative="1" as="geometry">
            <mxPoint x="1488.5099808384912" y="2103.990809666222" as="sourcePoint" />
          </mxGeometry>
        </mxCell>
        <mxCell id="kU-b7FJ7fmNxbk-5lAyr-934" value="JVM" style="rounded=1;fillColor=#f5af58;strokeColor=none;strokeWidth=3;shadow=0;html=1;fontColor=#FFFFFF;" vertex="1" parent="zQfSphmoL-g94JaTufq7-1">
          <mxGeometry x="912" y="1419" width="120" height="40" as="geometry" />
        </mxCell>
        <mxCell id="kU-b7FJ7fmNxbk-5lAyr-935" value="BREAK" style="rounded=1;fillColor=#f5af58;strokeColor=none;strokeWidth=3;shadow=0;html=1;fontColor=#FFFFFF;" vertex="1" parent="zQfSphmoL-g94JaTufq7-1">
          <mxGeometry x="1135" y="1451" width="120" height="40" as="geometry" />
        </mxCell>
        <mxCell id="kU-b7FJ7fmNxbk-5lAyr-936" value="Java Platform" style="rounded=1;fillColor=#ffe6cc;strokeColor=#FFB366;strokeWidth=3;shadow=0;html=1;" vertex="1" parent="zQfSphmoL-g94JaTufq7-1">
          <mxGeometry x="1190" y="1639.33" width="120" height="40" as="geometry" />
        </mxCell>
        <mxCell id="kU-b7FJ7fmNxbk-5lAyr-937" value="" style="edgeStyle=none;endArrow=none;strokeWidth=3;strokeColor=#F5AF58;html=1;entryX=1;entryY=0;entryDx=0;entryDy=0;" edge="1" parent="zQfSphmoL-g94JaTufq7-1" source="kU-b7FJ7fmNxbk-5lAyr-929" target="kU-b7FJ7fmNxbk-5lAyr-930">
          <mxGeometry x="-127" y="1339.33" width="100" height="100" as="geometry">
            <mxPoint x="-127" y="1439.33" as="sourcePoint" />
            <mxPoint x="-27" y="1339.33" as="targetPoint" />
          </mxGeometry>
        </mxCell>
        <mxCell id="kU-b7FJ7fmNxbk-5lAyr-940" value="" style="edgeStyle=none;endArrow=none;strokeWidth=3;strokeColor=#F5AF58;html=1;" edge="1" parent="zQfSphmoL-g94JaTufq7-1" source="kU-b7FJ7fmNxbk-5lAyr-929" target="kU-b7FJ7fmNxbk-5lAyr-934">
          <mxGeometry x="-127" y="1339.33" width="100" height="100" as="geometry">
            <mxPoint x="-127" y="1439.33" as="sourcePoint" />
            <mxPoint x="-27" y="1339.33" as="targetPoint" />
          </mxGeometry>
        </mxCell>
        <mxCell id="kU-b7FJ7fmNxbk-5lAyr-941" value="" style="edgeStyle=none;endArrow=none;strokeWidth=3;strokeColor=#F5AF58;html=1;" edge="1" parent="zQfSphmoL-g94JaTufq7-1" source="kU-b7FJ7fmNxbk-5lAyr-929" target="kU-b7FJ7fmNxbk-5lAyr-935">
          <mxGeometry x="-127" y="1339.33" width="100" height="100" as="geometry">
            <mxPoint x="-127" y="1439.33" as="sourcePoint" />
            <mxPoint x="-27" y="1339.33" as="targetPoint" />
          </mxGeometry>
        </mxCell>
        <mxCell id="kU-b7FJ7fmNxbk-5lAyr-942" value="" style="edgeStyle=none;endArrow=none;strokeWidth=3;strokeColor=#F5AF58;html=1;" edge="1" parent="zQfSphmoL-g94JaTufq7-1" source="kU-b7FJ7fmNxbk-5lAyr-929" target="kU-b7FJ7fmNxbk-5lAyr-936">
          <mxGeometry x="-127" y="1339.33" width="100" height="100" as="geometry">
            <mxPoint x="-127" y="1439.33" as="sourcePoint" />
            <mxPoint x="-27" y="1339.33" as="targetPoint" />
          </mxGeometry>
        </mxCell>
        <mxCell id="kU-b7FJ7fmNxbk-5lAyr-943" value="Stadard Edition (SE)" style="rounded=1;fillColor=#ffe6cc;strokeColor=#FFB366;strokeWidth=3;shadow=0;html=1;labelBackgroundColor=none;labelBorderColor=none;comic=0;" vertex="1" parent="zQfSphmoL-g94JaTufq7-1">
          <mxGeometry x="1255" y="1544.33" width="120" height="40" as="geometry" />
        </mxCell>
        <mxCell id="kU-b7FJ7fmNxbk-5lAyr-944" value="Enterprise Edition (EE)" style="rounded=1;fillColor=#ffe6cc;strokeColor=#FFB366;strokeWidth=3;shadow=0;html=1;labelBackgroundColor=none;labelBorderColor=none;" vertex="1" parent="zQfSphmoL-g94JaTufq7-1">
          <mxGeometry x="1373" y="1604.33" width="126" height="40" as="geometry" />
        </mxCell>
        <mxCell id="kU-b7FJ7fmNxbk-5lAyr-945" value="MIcro Edition (ME)" style="rounded=1;fillColor=#ffe6cc;strokeColor=#FFB366;strokeWidth=3;shadow=0;html=1;labelBackgroundColor=none;labelBorderColor=none;" vertex="1" parent="zQfSphmoL-g94JaTufq7-1">
          <mxGeometry x="1364" y="1690.33" width="120" height="40" as="geometry" />
        </mxCell>
        <mxCell id="kU-b7FJ7fmNxbk-5lAyr-946" value="" style="edgeStyle=none;endArrow=none;strokeWidth=3;strokeColor=#FFB366;html=1;entryX=0.5;entryY=1;entryDx=0;entryDy=0;exitX=0.5;exitY=0;exitDx=0;exitDy=0;labelBackgroundColor=none;labelBorderColor=none;fontColor=#FFFFFF;shadow=0;comic=0;fillColor=#ffe6cc;" edge="1" parent="zQfSphmoL-g94JaTufq7-1" source="kU-b7FJ7fmNxbk-5lAyr-936" target="kU-b7FJ7fmNxbk-5lAyr-943">
          <mxGeometry x="21" y="1312.65" width="100" height="100" as="geometry">
            <mxPoint x="1240.0422184681731" y="1603.3278480208398" as="sourcePoint" />
            <mxPoint x="1338.0000000000002" y="1621.5900921658986" as="targetPoint" />
          </mxGeometry>
        </mxCell>
        <mxCell id="kU-b7FJ7fmNxbk-5lAyr-947" value="" style="edgeStyle=none;endArrow=none;strokeWidth=3;strokeColor=#FFB366;html=1;entryX=0;entryY=0.5;entryDx=0;entryDy=0;exitX=1;exitY=0.5;exitDx=0;exitDy=0;labelBackgroundColor=none;labelBorderColor=none;fontColor=#FFFFFF;shadow=0;comic=0;fillColor=#ffe6cc;" edge="1" parent="zQfSphmoL-g94JaTufq7-1" source="kU-b7FJ7fmNxbk-5lAyr-936" target="kU-b7FJ7fmNxbk-5lAyr-944">
          <mxGeometry x="31" y="1322.65" width="100" height="100" as="geometry">
            <mxPoint x="1320" y="1649.33" as="sourcePoint" />
            <mxPoint x="1348" y="1614.33" as="targetPoint" />
          </mxGeometry>
        </mxCell>
        <mxCell id="kU-b7FJ7fmNxbk-5lAyr-948" value="" style="edgeStyle=none;endArrow=none;strokeWidth=3;strokeColor=#FFB366;html=1;entryX=0;entryY=0.5;entryDx=0;entryDy=0;exitX=1;exitY=0.75;exitDx=0;exitDy=0;labelBackgroundColor=none;labelBorderColor=none;fontColor=#FFFFFF;shadow=0;comic=0;fillColor=#ffe6cc;" edge="1" parent="zQfSphmoL-g94JaTufq7-1" source="kU-b7FJ7fmNxbk-5lAyr-936" target="kU-b7FJ7fmNxbk-5lAyr-945">
          <mxGeometry x="41" y="1332.65" width="100" height="100" as="geometry">
            <mxPoint x="1320" y="1669.33" as="sourcePoint" />
            <mxPoint x="1380" y="1677.33" as="targetPoint" />
          </mxGeometry>
        </mxCell>
        <mxCell id="kU-b7FJ7fmNxbk-5lAyr-949" value="FX" style="rounded=1;fillColor=#ffe6cc;strokeColor=#FFB366;strokeWidth=3;shadow=0;html=1;labelBackgroundColor=none;labelBorderColor=none;comic=0;" vertex="1" parent="zQfSphmoL-g94JaTufq7-1">
          <mxGeometry x="1224" y="1743.33" width="120" height="40" as="geometry" />
        </mxCell>
        <mxCell id="kU-b7FJ7fmNxbk-5lAyr-950" value="" style="edgeStyle=none;endArrow=none;strokeWidth=3;strokeColor=#FFB366;html=1;entryX=0.5;entryY=0;entryDx=0;entryDy=0;exitX=0.5;exitY=1;exitDx=0;exitDy=0;labelBackgroundColor=none;labelBorderColor=none;fontColor=#FFFFFF;shadow=0;comic=0;fillColor=#ffe6cc;" edge="1" parent="zQfSphmoL-g94JaTufq7-1" source="kU-b7FJ7fmNxbk-5lAyr-936" target="kU-b7FJ7fmNxbk-5lAyr-949">
          <mxGeometry x="-1" y="1330.65" width="100" height="100" as="geometry">
            <mxPoint x="1268" y="1677.33" as="sourcePoint" />
            <mxPoint x="1325" y="1738.33" as="targetPoint" />
          </mxGeometry>
        </mxCell>
        <mxCell id="kU-b7FJ7fmNxbk-5lAyr-952" value="IF ELSE" style="rounded=1;fillColor=#f08e81;strokeColor=none;strokeWidth=3;shadow=0;html=1;fontColor=#FFFFFF;" vertex="1" parent="zQfSphmoL-g94JaTufq7-1">
          <mxGeometry x="1864" y="625" width="120" height="40" as="geometry" />
        </mxCell>
        <mxCell id="kU-b7FJ7fmNxbk-5lAyr-954" value="" style="edgeStyle=none;endArrow=none;strokeWidth=3;strokeColor=#F08E81;html=1;entryX=1;entryY=1;entryDx=0;entryDy=0;exitX=0.045;exitY=0.289;exitDx=0;exitDy=0;exitPerimeter=0;curved=1;" edge="1" parent="zQfSphmoL-g94JaTufq7-1" source="kU-b7FJ7fmNxbk-5lAyr-3" target="kU-b7FJ7fmNxbk-5lAyr-952">
          <mxGeometry x="376" y="421" width="100" height="100" as="geometry">
            <mxPoint x="2096.0316031236007" y="673.2647549053158" as="sourcePoint" />
            <mxPoint x="2064.2" y="551" as="targetPoint" />
            <Array as="points" />
          </mxGeometry>
        </mxCell>
      </root>
    </mxGraphModel>
  </diagram>
</mxfile>
